<?xml version="1.0" encoding="UTF-8" standalone="no"?>
<!-- Generator: Adobe Illustrator 19.1.0, SVG Export Plug-In . SVG Version: 6.00 Build 0)  -->
<svg xmlns:dc="http://purl.org/dc/elements/1.1/" xmlns:cc="http://creativecommons.org/ns#" xmlns:rdf="http://www.w3.org/1999/02/22-rdf-syntax-ns#" xmlns:svg="http://www.w3.org/2000/svg" xmlns="http://www.w3.org/2000/svg" xmlns:sodipodi="http://sodipodi.sourceforge.net/DTD/sodipodi-0.dtd" xmlns:inkscape="http://www.inkscape.org/namespaces/inkscape" version="1.1" id="Capa_1" x="0px" y="0px" viewBox="0 0 490.4 490.4" style="enable-background:new 0 0 490.4 490.4;" xml:space="preserve" inkscape:version="0.91 r13725" sodipodi:docname="hlm_tx.svg"><metadata id="metadata45"><rdf:RDF><cc:Work rdf:about=""><dc:format>image/svg+xml</dc:format><dc:type rdf:resource="http://purl.org/dc/dcmitype/StillImage"/><dc:title/></cc:Work></rdf:RDF></metadata><defs id="defs43"><pattern y="0" x="0" height="6" width="6" patternUnits="userSpaceOnUse" id="EMFhbasepattern"/><pattern y="0" x="0" height="6" width="6" patternUnits="userSpaceOnUse" id="EMFhbasepattern-3"/><pattern y="0" x="0" height="6" width="6" patternUnits="userSpaceOnUse" id="EMFhbasepattern-1"/></defs><sodipodi:namedview pagecolor="#ffffff" bordercolor="#666666" borderopacity="1" objecttolerance="10" gridtolerance="10" guidetolerance="10" inkscape:pageopacity="0" inkscape:pageshadow="2" inkscape:window-width="1280" inkscape:window-height="1002" id="namedview41" showgrid="false" inkscape:zoom="1.437098" inkscape:cx="239.9187" inkscape:cy="272.51611" inkscape:window-x="-8" inkscape:window-y="-8" inkscape:window-maximized="1" inkscape:current-layer="Capa_1"/><g id="g4204" transform="translate(8.1435741e-7,3.000344)"><path sodipodi:nodetypes="ccccccccscccccccccccccccccccccccccscsccccccccccsccccccccccccsccccccccccccscccccccccccsccsccccccsscccccssccc" style="fill:#c1c1c1;fill-opacity:1;fill-rule:nonzero;stroke:none" d="m 25.616373,444.93062 c -5.230442,-2.6152 -6.538052,-7.84573 -2.942116,-12.7493 2.28831,-2.94214 4.576636,-3.26894 17.32586,-3.5959 l 14.383683,0 0.980716,-61.4578 0.980714,-61.45766 13.729847,-27.13293 c 7.51882,-15.03754 15.03764,-28.4406 16.672164,-30.40203 2.28834,-2.61518 7.51882,-2.94214 59.169409,-2.94214 51.65058,0 56.88106,0.32743 59.1694,2.94214 1.63452,1.96143 9.15334,16.01826 16.99907,31.70955 l 14.38338,28.4406 0,60.8039 0,60.47707 8.49954,0 8.82644,0 0.32694,-60.80389 0,-61.13084 16.01835,-30.72883 16.34484,-30.72899 58.84247,0 58.84255,0 15.3645,29.74826 15.36448,29.74813 0,61.13086 0,60.80387 7.51892,0.98073 c 3.92287,0.6533 11.44163,1.30813 16.01701,1.63447 7.84573,0.32742 9.1534,0.98072 10.46093,5.23053 1.30813,3.92286 1.30813,5.55733 -1.30814,7.84573 -2.94215,2.94214 -16.67077,2.94214 -220.33143,3.5959 -172.604643,0.32743 -218.370949,0 -221.640006,-1.96143 z m 86.629047,-17.97967 c 2.28834,-2.2884 2.94214,-7.84573 2.94214,-31.70986 0,-26.47886 0.32696,-28.76723 3.26906,-30.4017 1.96143,-0.98073 14.05692,-1.96144 27.13313,-1.96144 32.69006,0 30.72863,-1.96143 31.38245,35.95904 l 0.65376,30.07539 19.94123,0 20.2681,0 0.65377,-54.91976 0.32696,-54.9196 -72.89942,0 -72.89942,0 0,55.24656 0,55.24654 18.306688,0 c 14.383832,0 18.960062,-0.65328 20.921492,-2.61517 z m 46.74743,-21.9027 0,-24.51742 -13.0762,0 -13.0762,0 0,24.51742 0,24.51787 13.0762,0 13.0762,0 z m 154.29793,-6.21126 c 0.32696,-37.92047 -1.30767,-35.95904 31.70937,-35.95904 16.67217,0 25.17171,0.65328 27.13313,2.28824 2.61519,1.96143 3.26912,6.21124 3.59592,33.01704 l 0.32741,30.72915 20.59502,0.32741 20.59457,0.6533 0,-55.57351 0,-55.24656 -72.89936,0 -72.89897,0 0,54.26584 0,54.26583 6.53809,0.6533 c 3.59596,0.6533 13.07578,0.6533 20.59458,0.6533 l 14.05694,0 0.65376,-30.07523 z m 35.95913,29.74843 8.17263,-1.30814 0,-23.21022 0,-23.53686 -13.07622,0 -13.07576,0 0,24.51758 0,24.51788 4.90359,0 c 2.94214,0 8.826,-0.32741 13.07576,-0.98071 z m -137.62577,-128.146 c 0,-0.32742 -3.92286,-9.15324 -9.15333,-19.2872 l -9.15336,-18.30649 -47.4008,0 -47.400819,0 -10.134066,19.2872 -10.134051,19.2872 66.688216,0 c 36.93986,0 66.68821,-0.32741 66.68821,-0.98071 z m 190.58436,-18.30649 -9.48019,-19.2872 -47.72816,0.32743 -47.72772,0.32742 -9.48025,17.65271 c -4.90315,9.807 -9.1529,18.3065 -9.1529,18.9604 0,0.6533 30.07483,1.30814 66.68776,1.30814 l 66.68816,0 -9.8067,-19.2872 z" id="path4139" inkscape:connector-curvature="0"/><g transform="translate(0.19749195,0)" style="font-style:normal;font-weight:normal;font-size:44.37543106px;line-height:69.99999881%;font-family:sans-serif;letter-spacing:0px;word-spacing:0px;fill:#ffffff;fill-opacity:1;stroke:none;stroke-width:1px;stroke-linecap:butt;stroke-linejoin:miter;stroke-opacity:1" id="text4138"/><path sodipodi:nodetypes="ccccccccscccccccccccccccccccccccccscsccccccccccsccccccccccccsccccccccccccscccccccccccsccsccccccsscccccssccc" style="fill:#E3C213;fill-opacity:1;fill-rule:nonzero;stroke:none" d="m 25.616379,237.13436 c -5.23045,-2.6152 -6.53806,-7.84573 -2.94212,-12.7493 2.28831,-2.94214 4.57664,-3.26894 17.32586,-3.5959 l 14.38368,0 0.98072,-61.45779 0.98071,-61.457664 13.72985,-27.13293 c 7.51882,-15.037539 15.03764,-28.440599 16.67216,-30.402029 2.28834,-2.61518 7.51882,-2.94214 59.169411,-2.94214 51.65058,0 56.88106,0.32743 59.1694,2.94214 1.63452,1.96143 9.15334,16.01826 16.99907,31.709549 l 14.38338,28.440604 0,60.8039 0,60.47706 8.49954,0 8.82644,0 0.32694,-60.80388 0,-61.130844 16.01835,-30.72883 16.34484,-30.728989 58.84247,0 58.84255,0 15.3645,29.748259 15.36448,29.74813 0,61.130864 0,60.80386 7.51892,0.98073 c 3.92287,0.6533 11.44163,1.30813 16.01701,1.63447 7.84573,0.32742 9.1534,0.98072 10.46093,5.23053 1.30813,3.92286 1.30813,5.55733 -1.30814,7.84573 -2.94215,2.94214 -16.67077,2.94214 -220.33143,3.5959 -172.604641,0.32743 -218.370951,0 -221.640001,-1.96143 z m 86.629041,-17.97967 c 2.28834,-2.2884 2.94214,-7.84573 2.94214,-31.70985 0,-26.47886 0.32696,-28.76723 3.26906,-30.4017 1.96143,-0.98073 14.05692,-1.96144 27.13313,-1.96144 32.69006,0 30.72863,-1.96143 31.38245,35.95904 l 0.65376,30.07538 19.94123,0 20.2681,0 0.65377,-54.91975 0.32696,-54.9196 -72.89942,0 -72.899421,0 0,55.24656 0,55.24653 18.30669,0 c 14.383831,0 18.960061,-0.65328 20.921491,-2.61517 z m 46.74743,-21.90269 0,-24.51742 -13.0762,0 -13.0762,0 0,24.51742 0,24.51786 13.0762,0 13.0762,0 z m 154.29793,-6.21126 c 0.32696,-37.92047 -1.30767,-35.95904 31.70937,-35.95904 16.67217,0 25.17171,0.65328 27.13313,2.28824 2.61519,1.96143 3.26912,6.21124 3.59592,33.01704 l 0.32741,30.72914 20.59502,0.32741 20.59457,0.6533 0,-55.5735 0,-55.24656 -72.89936,0 -72.89897,0 0,54.26584 0,54.26582 6.53809,0.6533 c 3.59596,0.6533 13.07578,0.6533 20.59458,0.6533 l 14.05694,0 0.65376,-30.07522 z m 35.95913,29.74842 8.17263,-1.30814 0,-23.21021 0,-23.53686 -13.07622,0 -13.07576,0 0,24.51758 0,24.51787 4.90359,0 c 2.94214,0 8.826,-0.32741 13.07576,-0.98071 z M 211.62414,92.643166 c 0,-0.32742 -3.92286,-9.153239 -9.15333,-19.2872 l -9.15336,-18.306489 -47.4008,0 -47.400808,0 -10.134073,19.287199 -10.13405,19.2872 66.688211,0 c 36.93986,0 66.68821,-0.32741 66.68821,-0.98071 z m 190.58436,-18.30649 -9.48019,-19.287199 -47.72816,0.32743 -47.72772,0.32742 -9.48025,17.652709 c -4.90315,9.807001 -9.1529,18.3065 -9.1529,18.9604 0,0.6533 30.07483,1.30814 66.68776,1.30814 l 66.68816,0 -9.8067,-19.2872 z" id="path4139-4" inkscape:connector-curvature="0"/></g><g id="g4214" transform="translate(148.99875,134.99427)"><path style="color:#000000;clip-rule:nonzero;display:inline;overflow:visible;visibility:visible;opacity:1;isolation:auto;mix-blend-mode:normal;color-interpolation:sRGB;color-interpolation-filters:linearRGB;solid-color:#000000;solid-opacity:1;fill:#E3C213;fill-opacity:1;fill-rule:nonzero;stroke:none;stroke-width:0.1;stroke-linecap:butt;stroke-linejoin:miter;stroke-miterlimit:4;stroke-dasharray:none;stroke-dashoffset:0;stroke-opacity:1;color-rendering:auto;image-rendering:auto;shape-rendering:auto;text-rendering:auto;enable-background:accumulate" d="m 25.274032,-59.580894 137.459408,0 c 2.67724,0 4.83256,2.15532 4.83256,4.83256 l 0,60.1384901 c 0,2.67724 -2.15532,4.8325599 -4.83256,4.8325599 l -137.459408,0 c -2.67724,0 -4.83256,-2.1553199 -4.83256,-4.8325599 l 0,-60.1384901 c 0,-2.67724 2.15532,-4.83256 4.83256,-4.83256 z" id="rect4136" inkscape:connector-curvature="0"/><path d="m 69.114612,-8.0423539 -8.65354,0 0,-13.8456501 -12.48059,0 0,13.8456501 -8.65353,0 0,-33.2734501 8.65353,0 0,12.84624 12.48059,0 0,-12.84624 8.65354,0 0,33.2734501 z" style="font-style:normal;font-variant:normal;font-weight:bold;font-stretch:normal;font-size:49.92235947px;line-height:69.99999881%;font-family:Aharoni;-inkscape-font-specification:'Aharoni Bold';letter-spacing:4.43754292px;word-spacing:0px;fill:#ffffff;fill-opacity:1;stroke:none;stroke-width:1px;stroke-linecap:butt;stroke-linejoin:miter;stroke-opacity:1" id="path4152" inkscape:connector-curvature="0"/><path d="m 99.561512,-8.0423539 -19.03778,0 0,-33.2734501 8.65353,0 0,26.03373 10.38425,0 0,7.2397201 z" style="font-style:normal;font-variant:normal;font-weight:bold;font-stretch:normal;font-size:49.92235947px;line-height:69.99999881%;font-family:Aharoni;-inkscape-font-specification:'Aharoni Bold';letter-spacing:4.43754292px;word-spacing:0px;fill:#ffffff;fill-opacity:1;stroke:none;stroke-width:1px;stroke-linecap:butt;stroke-linejoin:miter;stroke-opacity:1" id="path4154" inkscape:connector-curvature="0"/><path d="m 148.68054,-8.0423539 -8.65354,0 -2.46199,-19.1596501 -8.04413,19.1596501 -3.43704,0 -7.67849,-19.1596501 -2.82763,19.1596501 -8.60478,0 5.65527,-33.2734501 8.53165,0 6.75219,17.74584 7.14222,-17.74584 8.60478,0 5.02149,33.2734501 z" style="font-style:normal;font-variant:normal;font-weight:bold;font-stretch:normal;font-size:49.92235947px;line-height:69.99999881%;font-family:Aharoni;-inkscape-font-specification:'Aharoni Bold';letter-spacing:4.43754292px;word-spacing:0px;fill:#ffffff;fill-opacity:1;stroke:none;stroke-width:1px;stroke-linecap:butt;stroke-linejoin:miter;stroke-opacity:1" id="path4156" inkscape:connector-curvature="0"/></g></svg>