<?xml version="1.0" encoding="UTF-8" standalone="no"?>
<!-- Generator: Adobe Illustrator 19.1.0, SVG Export Plug-In . SVG Version: 6.00 Build 0)  -->
<svg xmlns:dc="http://purl.org/dc/elements/1.1/" xmlns:cc="http://creativecommons.org/ns#" xmlns:rdf="http://www.w3.org/1999/02/22-rdf-syntax-ns#" xmlns:svg="http://www.w3.org/2000/svg" xmlns="http://www.w3.org/2000/svg" xmlns:sodipodi="http://sodipodi.sourceforge.net/DTD/sodipodi-0.dtd" xmlns:inkscape="http://www.inkscape.org/namespaces/inkscape" version="1.1" id="Capa_1" x="0px" y="0px" viewBox="0 0 490.4 490.4" style="enable-background:new 0 0 490.4 490.4;" xml:space="preserve" inkscape:version="0.91 r13725" sodipodi:docname="house_person.svg"><metadata id="metadata45"><rdf:RDF><cc:Work rdf:about=""><dc:format>image/svg+xml</dc:format><dc:type rdf:resource="http://purl.org/dc/dcmitype/StillImage"/><dc:title/></cc:Work></rdf:RDF></metadata><defs id="defs43"><pattern y="0" x="0" height="6" width="6" patternUnits="userSpaceOnUse" id="EMFhbasepattern"/></defs><sodipodi:namedview pagecolor="#ffffff" bordercolor="#666666" borderopacity="1" objecttolerance="10" gridtolerance="10" guidetolerance="10" inkscape:pageopacity="0" inkscape:pageshadow="2" inkscape:window-width="1366" inkscape:window-height="706" id="namedview41" showgrid="false" inkscape:zoom="0.72656255" inkscape:cx="-65.104329" inkscape:cy="209.47093" inkscape:window-x="1272" inkscape:window-y="-8" inkscape:window-maximized="1" inkscape:current-layer="Capa_1"/><path inkscape:connector-curvature="0" id="path4139" d="m 25.616374,319.56394 c -5.23044,-2.6152 -6.53805,-7.84573 -2.94211,-12.7493 2.28831,-2.94214 4.57663,-3.26894 17.32586,-3.5959 l 14.38368,0 0.98072,-61.4578 0.98071,-61.45766 13.72985,-27.13293 c 7.51882,-15.03754 15.03764,-28.4406 16.67216,-30.40203 2.28834,-2.61518 7.51882,-2.94214 59.169406,-2.94214 51.65058,0 56.88106,0.32743 59.1694,2.94214 1.63452,1.96143 9.15334,16.01826 16.99907,31.70955 l 14.38338,28.4406 0,60.8039 0,60.47707 8.49954,0 8.82644,0 0.32694,-60.80389 0,-61.13084 16.01835,-30.72883 16.34484,-30.72899 58.84247,0 58.84255,0 15.3645,29.74826 15.36448,29.74813 0,61.13086 0,60.80387 7.51892,0.98073 c 3.92287,0.6533 11.44163,1.30813 16.01701,1.63447 7.84573,0.32742 9.1534,0.98072 10.46093,5.23053 1.30813,3.92286 1.30813,5.55733 -1.30814,7.84573 -2.94215,2.94214 -16.67077,2.94214 -220.33143,3.5959 -172.604636,0.32743 -218.370946,0 -221.639996,-1.96143 z m 86.629056,-17.97967 c 2.28834,-2.2884 2.94214,-7.84573 2.94214,-31.70986 0,-26.47886 0.32696,-28.76723 3.26906,-30.4017 1.96143,-0.98073 14.05691,-1.96144 27.13312,-1.96144 32.69006,0 30.72863,-1.96143 31.38245,35.95904 l 0.65376,30.07539 19.94123,0 20.2681,0 0.65377,-54.91976 0.32696,-54.9196 -72.89942,0 -72.899416,0 0,55.24656 0,55.24654 18.30669,0 c 14.383836,0 18.960066,-0.65328 20.921496,-2.61517 z m 46.74742,-21.9027 0,-24.51742 -13.0762,0 -13.0762,0 0,24.51742 0,24.51787 13.0762,0 13.0762,0 z m 154.29793,-6.21126 c 0.32696,-37.92047 -1.30767,-35.95904 31.70937,-35.95904 16.67217,0 25.17171,0.65328 27.13313,2.28824 2.61519,1.96143 3.26912,6.21124 3.59592,33.01704 l 0.32741,30.72915 20.59502,0.32741 20.59457,0.6533 0,-55.57351 0,-55.24656 -72.89936,0 -72.89897,0 0,54.26584 0,54.26583 6.53809,0.6533 c 3.59596,0.6533 13.07578,0.6533 20.59458,0.6533 l 14.05694,0 0.65376,-30.07523 z m 35.95913,29.74843 8.17263,-1.30814 0,-23.21022 0,-23.53686 -13.07622,0 -13.07576,0 0,24.51758 0,24.51788 4.90359,0 c 2.94214,0 8.826,-0.32741 13.07576,-0.98071 z m -137.62577,-128.146 c 0,-0.32742 -3.92286,-9.15324 -9.15333,-19.2872 l -9.15336,-18.30649 -47.4008,0 -47.400816,0 -10.13406,19.2872 -10.13406,19.2872 66.688216,0 c 36.93986,0 66.68821,-0.32741 66.68821,-0.98071 z m 190.58436,-18.30649 -9.48019,-19.2872 -47.72816,0.32743 -47.72772,0.32742 -9.48025,17.65271 c -4.90315,9.807 -9.1529,18.3065 -9.1529,18.9604 0,0.6533 30.07483,1.30814 66.68776,1.30814 l 66.68816,0 -9.8067,-19.2872 z" style="fill:#bcbcbc;fill-opacity:1;fill-rule:nonzero;stroke:none" sodipodi:nodetypes="ccccccccscccccccccccccccccccccccccscsccccccccccsccccccccccccsccccccccccccscccccccccccsccsccccccsscccccssccc"/><g id="g4154" transform="translate(11.029154,-44.468903)"><circle r="24.319038" cy="263.35568" cx="142.59166" id="path6431" style="opacity:1;fill:#ffffff;fill-opacity:1;stroke:none;stroke-width:0.2;stroke-linecap:round;stroke-linejoin:round;stroke-miterlimit:4;stroke-dasharray:none;stroke-dashoffset:10;stroke-opacity:1"/><path sodipodi:nodetypes="ssssscsscsssssssssssssscssscc" inkscape:connector-curvature="0" id="path5394-2-6" d="m 75.22884,391.80079 c -1.252602,-1.78837 -2.277441,-3.96487 -2.277441,-4.83675 0,-1.80464 14.335046,-35.39842 19.043066,-44.6269 4.664678,-9.14354 14.434475,-18.99282 22.652415,-22.8367 6.57508,-3.07541 9.38674,-3.4215 27.79702,-3.4215 18.39193,0 21.22842,0.34846 27.79698,3.41362 13.21435,6.16664 20.31854,16.2074 33.56816,47.44364 7.55459,17.81012 8.08402,19.76318 6.34566,23.40798 -1.45988,3.06095 -3.10214,4.07787 -7.13194,4.41633 -3.01804,0.25343 -5.8986,-0.36611 -6.80137,-1.46298 -0.86133,-1.04651 -5.52356,-11.00566 -10.36053,-22.13145 -15.07315,-34.67077 -18.44643,-37.5738 -43.61614,-37.53567 -25.19149,0.0382 -28.86355,3.33698 -44.417536,39.90333 -4.178591,9.82358 -8.648301,18.68398 -9.932726,19.68982 -3.746681,2.93397 -10.115092,2.21858 -12.665618,-1.42277 z m 58.19126,-93.16763 c -7.68484,-1.96181 -17.28325,-8.39415 -21.35438,-14.31057 -5.54895,-8.06398 -6.92833,-12.65569 -6.92833,-23.0629 0,-31.12732 35.43121,-48.5416 60.24925,-29.61225 9.04648,6.89997 14.36374,17.91466 14.36374,29.75448 0,5.16419 -0.92354,11.59977 -2.05234,14.30135 -2.81677,6.7415 -11.98079,16.57512 -18.58733,19.94551 -6.33195,3.23032 -18.97431,4.69895 -25.69061,2.98438 z m 19.71858,-20.65832 c 8.85205,-5.39692 11.53573,-17.75137 5.74462,-26.44585 -7.33961,-11.01949 -20.16927,-12.6239 -29.86855,-3.7352 -9.40304,8.61723 -7.96587,23.65652 2.89338,30.27778 6.06167,3.696 15.07715,3.65492 21.23055,-0.0968 z" style="fill:#E3C213;fill-opacity:1"/><circle r="24.319038" cy="262.19797" cx="237.93776" id="path6431-7" style="opacity:1;fill:#ffffff;fill-opacity:1;stroke:none;stroke-width:0.2;stroke-linecap:round;stroke-linejoin:round;stroke-miterlimit:4;stroke-dasharray:none;stroke-dashoffset:10;stroke-opacity:1"/><circle r="24.319038" cy="262.96985" cx="328.26559" id="path6431-6" style="opacity:1;fill:#ffffff;fill-opacity:1;stroke:none;stroke-width:0.2;stroke-linecap:round;stroke-linejoin:round;stroke-miterlimit:4;stroke-dasharray:none;stroke-dashoffset:10;stroke-opacity:1"/><path sodipodi:nodetypes="ssssscsscsssssssssssssscssscc" inkscape:connector-curvature="0" id="path5394-2-9-1" d="m 259.64017,391.80079 c -1.25261,-1.78837 -2.27745,-3.96487 -2.27745,-4.83675 0,-1.80464 14.33505,-35.39842 19.04307,-44.6269 4.66468,-9.14354 14.43448,-18.99282 22.65242,-22.8367 6.57508,-3.07541 9.3867,-3.4215 27.79698,-3.4215 18.39193,0 21.22843,0.34846 27.79702,3.41362 13.21431,6.16664 20.31849,16.2074 33.56812,47.44364 7.5546,17.81012 8.08403,19.76318 6.34565,23.40798 -1.45987,3.06095 -3.10212,4.07787 -7.13193,4.41633 -3.01804,0.25343 -5.8986,-0.36611 -6.80137,-1.46298 -0.86133,-1.04651 -5.52356,-11.00566 -10.36053,-22.13145 -15.07316,-34.67077 -18.44642,-37.5738 -43.61613,-37.53567 -25.19146,0.0382 -28.86352,3.33698 -44.41751,39.90333 -4.17859,9.82358 -8.6483,18.68398 -9.93273,19.68982 -3.74667,2.93397 -10.11509,2.21858 -12.66561,-1.42277 z m 58.19122,-93.16763 c -7.68484,-1.96181 -17.28321,-8.39415 -21.35435,-14.31057 -5.54894,-8.06398 -6.92832,-12.65569 -6.92832,-23.0629 0,-31.12732 35.43117,-48.5416 60.24922,-29.61225 9.04647,6.89997 14.36373,17.91466 14.36373,29.75448 0,5.16419 -0.92354,11.59977 -2.05235,14.30135 -2.81677,6.7415 -11.98078,16.57512 -18.58732,19.94551 -6.33194,3.23032 -18.97431,4.69895 -25.69061,2.98438 z m 19.71858,-20.65832 c 8.85205,-5.39692 11.53574,-17.75137 5.74463,-26.44585 -7.33961,-11.01949 -20.16928,-12.6239 -29.86855,-3.7352 -9.40301,8.61723 -7.96585,23.65652 2.89337,30.27778 6.06167,3.696 15.07716,3.65492 21.23055,-0.0968 z" style="fill:#E3C213;fill-opacity:1"/><path sodipodi:nodetypes="ssssscsscsssssssssssssscssscc" inkscape:connector-curvature="0" id="path5394-2-3-6" d="m 167.43448,391.80079 c -1.25259,-1.78837 -2.27744,-3.96487 -2.27744,-4.83675 0,-1.80464 14.33505,-35.39842 19.04307,-44.6269 4.66468,-9.14354 14.43447,-18.99282 22.65241,-22.8367 6.57508,-3.07541 9.38674,-3.4215 27.79703,-3.4215 18.39192,0 21.22842,0.34846 27.79698,3.41362 13.21435,6.16664 20.31853,16.2074 33.56815,47.44364 7.5546,17.81012 8.08402,19.76318 6.34566,23.40798 -1.45988,3.06095 -3.10212,4.07787 -7.13194,4.41633 -3.01803,0.25343 -5.89859,-0.36611 -6.80136,-1.46298 -0.86134,-1.04651 -5.52356,-11.00566 -10.36053,-22.13145 -15.07316,-34.67077 -18.44643,-37.5738 -43.61615,-37.53567 -25.19148,0.0382 -28.86354,3.33698 -44.41753,39.90333 -4.17859,9.82358 -8.6483,18.68398 -9.93273,19.68982 -3.74668,2.93397 -10.11509,2.21858 -12.66562,-1.42277 z m 58.19127,-93.16763 c -7.68484,-1.96181 -17.28325,-8.39415 -21.35439,-14.31057 -5.54894,-8.06398 -6.92833,-12.65569 -6.92833,-23.0629 0,-31.12732 35.43122,-48.5416 60.24926,-29.61225 9.04648,6.89997 14.36374,17.91466 14.36374,29.75448 0,5.16419 -0.92355,11.59977 -2.05235,14.30135 -2.81677,6.7415 -11.98078,16.57512 -18.58732,19.94551 -6.33195,3.23032 -18.97432,4.69895 -25.69061,2.98438 z m 19.71857,-20.65832 c 8.85205,-5.39692 11.53574,-17.75137 5.74464,-26.44585 -7.33962,-11.01949 -20.16929,-12.6239 -29.86856,-3.7352 -9.40305,8.61723 -7.96588,23.65652 2.89338,30.27778 6.06166,3.696 15.07715,3.65492 21.23054,-0.0968 z" style="fill:#E3C213;fill-opacity:1"/></g></svg>