<?xml version="1.0" encoding="UTF-8" standalone="no"?>
<!-- Generator: Adobe Illustrator 19.1.0, SVG Export Plug-In . SVG Version: 6.00 Build 0)  -->
<svg xmlns:dc="http://purl.org/dc/elements/1.1/" xmlns:cc="http://creativecommons.org/ns#" xmlns:rdf="http://www.w3.org/1999/02/22-rdf-syntax-ns#" xmlns:svg="http://www.w3.org/2000/svg" xmlns="http://www.w3.org/2000/svg" xmlns:sodipodi="http://sodipodi.sourceforge.net/DTD/sodipodi-0.dtd" xmlns:inkscape="http://www.inkscape.org/namespaces/inkscape" version="1.1" id="Capa_1" x="0px" y="0px" viewBox="0 0 490.4 490.4" style="enable-background:new 0 0 490.4 490.4;" xml:space="preserve" inkscape:version="0.91 r13725" sodipodi:docname="densite.svg"><metadata id="metadata45"><rdf:RDF><cc:Work rdf:about=""><dc:format>image/svg+xml</dc:format><dc:type rdf:resource="http://purl.org/dc/dcmitype/StillImage"/><dc:title/></cc:Work></rdf:RDF></metadata><defs id="defs43"/><sodipodi:namedview pagecolor="#ffffff" bordercolor="#666666" borderopacity="1" objecttolerance="10" gridtolerance="10" guidetolerance="10" inkscape:pageopacity="0" inkscape:pageshadow="2" inkscape:window-width="1280" inkscape:window-height="1002" id="namedview41" showgrid="false" inkscape:zoom="1.4531251" inkscape:cx="254.89565" inkscape:cy="257.9217" inkscape:window-x="-8" inkscape:window-y="-8" inkscape:window-maximized="1" inkscape:current-layer="Capa_1"/><g transform="matrix(6.0195237,0,0,6.0195237,-968.37781,-1703.0011)" id="g7827"><g style="fill:#bcbcbc;fill-opacity:1" transform="translate(134.28072,-69.997187)" id="g5488"><path style="fill:#bcbcbc;fill-opacity:1;fill-rule:evenodd;stroke:none;stroke-width:1px;stroke-linecap:butt;stroke-linejoin:miter;stroke-opacity:1" d="m 86.869627,368.64268 -1.136375,3.91418 -2.020224,5.05056 -4.040448,1.26264 1.010112,4.79804 -2.399016,2.65154 c 0,0 -0.883848,4.29298 -0.883848,5.30309 0,1.01011 1.89396,4.41924 1.89396,4.41924 l 7.828367,0.50505 1.767696,5.93441 2.651544,11.2375 4.41924,-5.30309 4.419235,-17.42443 -1.893955,-6.81826 -5.68188,1.01011 -8.585951,-2.02022 3.156599,-4.04045 4.040448,0.12627 5.05056,1.64143 -2.146488,-6.56573 z" id="path5486" inkscape:connector-curvature="0"/><path style="fill:#bcbcbc;fill-opacity:1;fill-rule:evenodd;stroke:none;stroke-width:1px;stroke-linecap:butt;stroke-linejoin:miter;stroke-opacity:1" d="m 36.863456,381.43124 9.343536,-12.87892 3.787919,1.76769 2.52528,-2.02022 3.282864,0 11.36376,0 -2.52528,3.03033 2.777808,3.28287 -2.020224,2.27275 -11.36376,9.34353 -4.798032,1.26264 -0.252528,2.77781 3.78792,3.03034 9.596064,0.50505 5.05056,5.05056 4.292975,2.27276 1.26264,2.52528 -1.767696,2.7778 -4.292975,4.54551 -4.040448,5.55561 -1.515168,2.77781 -3.030336,-5.55562 0,-7.32331 -5.555616,-4.79803 0.757584,-8.33342 -8.080895,-2.52528 -2.020224,-2.27275 -3.282864,-2.02023 z" id="path5484" inkscape:connector-curvature="0"/><path style="fill:#bcbcbc;fill-opacity:1" d="m 64.103664,427.09767 c -14.495135,-1.24581 -26.74343,-12.18896 -29.817881,-26.64058 -0.767718,-3.60871 -0.824522,-9.49515 -0.127443,-13.20758 2.209585,-11.76766 10.57862,-21.51855 21.982274,-25.61188 3.45046,-1.23854 7.166062,-1.81576 11.505072,-1.78731 6.400786,0.042 11.586906,1.47639 17.151581,4.7439 3.84105,2.2554 9.21184,7.6262 11.46726,11.46725 3.347,5.70006 4.714183,10.7587 4.717333,17.45433 0.003,6.68097 -1.366033,11.74693 -4.717333,17.45432 -2.25542,3.84106 -7.62621,9.21185 -11.46726,11.46727 -6.412333,3.76523 -13.233698,5.30143 -20.693603,4.66028 z m 10.697446,-3.30362 c 3.377765,-0.89164 6.703978,-2.34447 9.406017,-4.10837 2.64944,-1.72958 5.65646,-4.44411 5.65646,-5.10628 0,-0.24311 -0.54046,-2.34006 -1.20101,-4.6599 -0.74624,-2.62073 -1.25898,-5.15411 -1.35411,-6.69036 -0.205,-3.31067 -0.75177,-5.06814 -1.68744,-5.42389 -0.4035,-0.15341 -1.816493,-0.27893 -3.13997,-0.27893 -2.868449,0 -3.488755,-0.37261 -5.309179,-3.18916 -1.134021,-1.75455 -1.190882,-1.96257 -1.190882,-4.35657 0,-2.27987 0.08931,-2.65615 0.958854,-4.03982 0.527371,-0.83918 1.186797,-1.78352 1.465388,-2.09853 0.402831,-0.45551 0.485013,-1.08705 0.401451,-3.08502 -0.128988,-3.084 0.353144,-3.8888 2.808378,-4.68792 2.374127,-0.77273 2.60908,-1.07524 2.74826,-3.53848 0.10296,-1.8221 0.24516,-2.26213 0.97832,-3.02739 l 0.85785,-0.8954 -2.205948,-1.41135 c -2.568145,-1.64308 -5.850136,-3.06602 -9.192439,-3.98548 -1.966115,-0.54088 -3.231577,-0.6514 -7.458176,-0.6514 -5.603049,0 -7.584721,0.36973 -12.135348,2.26417 -2.669997,1.11151 -6.965027,3.7635 -6.400145,3.95179 0.210899,0.0703 0.754069,-0.2257 1.207051,-0.65778 0.452974,-0.43208 1.214394,-0.93325 1.692056,-1.11373 1.183196,-0.44704 3.59988,-0.39452 4.487234,0.0975 0.598507,0.33187 0.928096,0.33233 1.851011,0.003 0.727702,-0.25999 2.783406,-0.40592 5.841518,-0.41469 4.607132,-0.0132 4.736582,0.004 5.475912,0.74369 0.416476,0.41646 0.757237,1.04749 0.757237,1.40226 0,0.92149 -1.287326,2.08368 -2.575761,2.3254 l -1.102181,0.20677 1.067715,1.00699 c 0.92224,0.86978 1.067716,1.20358 1.067716,2.44996 0,1.79825 -0.983022,2.95744 -2.507975,2.95744 -0.866645,0 -1.577487,0.57933 -5.567054,4.53707 -3.550249,3.52192 -4.573557,4.71607 -4.573557,5.33708 0,1.61833 -1.482396,2.0813 -2.362626,0.73789 -0.448698,-0.6848 -0.683693,-0.77692 -1.601784,-0.62794 -1.206011,0.19571 -1.580611,0.60903 -1.576092,1.73898 0.0021,0.64627 0.34022,0.93372 2.083644,1.77388 2.002359,0.96495 2.223946,1.00264 5.89529,1.00264 l 3.81472,0 2.831258,2.77651 c 2.688486,2.6365 2.8989,2.77652 4.172583,2.77652 1.223975,0 1.498943,0.15762 3.142978,1.80165 2.041044,2.04105 2.074541,2.19708 1.19703,5.57615 -0.656053,2.52632 -1.299381,3.38234 -2.767608,3.68262 -0.844968,0.17282 -1.080269,0.45028 -1.723,2.03168 -0.515864,1.26925 -1.328017,2.42039 -2.645452,3.74964 l -1.901062,1.91811 -0.156358,2.18532 c -0.08827,1.23369 -0.330556,2.32988 -0.556385,2.5173 -0.220015,0.1826 -0.925641,0.28833 -1.568051,0.23496 -0.991184,-0.0823 -1.345317,-0.33057 -2.339035,-1.63954 -2.231526,-2.93947 -2.39754,-3.53108 -2.39754,-8.54383 l 0,-4.49274 -2.307004,-1.7364 c -1.268857,-0.95501 -2.518286,-2.14496 -2.776524,-2.64432 -0.609041,-1.17777 -0.614471,-4.76915 -0.0098,-6.48297 0.441631,-1.25171 0.432536,-1.3258 -0.23138,-1.88447 -0.738377,-0.62133 -1.489677,-0.86012 -5.224727,-1.66055 -2.009198,-0.43057 -2.51897,-0.67374 -3.3164,-1.58196 -0.518233,-0.59024 -0.94225,-1.18981 -0.94225,-1.33237 0,-0.14257 -0.397096,-0.33862 -0.882437,-0.4357 -1.374922,-0.27498 -2.755239,-1.64191 -3.350551,-3.31804 -0.296646,-0.83524 -0.636133,-1.51862 -0.75441,-1.51862 -0.118277,0 -0.467464,1.0759 -0.775973,2.39088 -0.821818,3.50294 -0.745621,11.05949 0.144423,14.32234 1.591229,5.83342 4.482031,10.80172 8.598094,14.77722 4.706124,4.5454 9.933434,7.29021 16.119798,8.46434 3.276966,0.62194 9.897312,0.40796 13.039385,-0.42147 z m 5.624022,-50.75834 c -0.09022,-0.2351 -0.120576,-1.03335 -0.06746,-1.77389 0.08815,-1.22875 0.174554,-1.35532 0.988622,-1.44825 0.506662,-0.0579 1.004414,0.0754 1.152161,0.3085 0.388306,0.61254 0.32277,2.54749 -0.100628,2.9709 -0.504634,0.50463 -1.7712,0.46787 -1.972704,-0.0573 z m -16.317326,40.26522 c 1.339361,-1.41979 2.168701,-2.62526 2.600952,-3.78057 0.875569,-2.34016 1.271768,-2.78931 2.659486,-3.01487 1.186833,-0.19292 1.209884,-0.22261 1.649401,-2.12512 l 0.445752,-1.92947 -1.040986,-1.07403 c -0.88991,-0.91815 -1.245823,-1.07403 -2.452296,-1.07403 -1.367351,0 -1.497548,-0.0867 -4.181379,-2.78571 l -2.770091,-2.78571 -2.750642,0.0863 -2.750641,0.0863 -0.541839,1.5425 c -0.550415,1.5669 -0.740291,3.7218 -0.404953,4.59569 0.101596,0.26475 1.128491,1.18102 2.281982,2.03613 3.187298,2.36284 3.205787,2.40743 3.390796,8.17628 0.136232,4.24805 0.243535,5.06198 0.769867,5.83968 l 0.611567,0.90364 0.258337,-1.3063 c 0.197484,-0.99862 0.721489,-1.79728 2.224687,-3.39075 z m 30.409021,-4.59995 c 3.30799,-5.76776 4.65234,-13.13985 3.63881,-19.95436 l -0.34601,-2.32637 -1.62158,0 c -0.89187,0 -2.11997,0.20824 -2.72911,0.46276 -1.71668,0.71727 -2.69621,0.56338 -4.90907,-0.77126 -1.90294,-1.14772 -2.20758,-1.23401 -4.35659,-1.23401 -3.006313,0 -3.599149,0.25891 -4.769741,2.08313 -1.427585,2.22469 -1.372303,4.02838 0.192189,6.27086 l 1.166714,1.67233 2.920933,0.15524 c 2.977755,0.15825 3.885945,0.49145 4.766605,1.74876 0.71033,1.01414 1.39361,3.86326 1.39361,5.81103 0,1.16723 0.3604,3.19082 0.93781,5.26567 1.42624,5.12503 1.2048,4.67226 1.86181,3.80686 0.31127,-0.41001 1.1454,-1.75579 1.85362,-2.99064 z m -46.918016,-19.5165 c 0,-0.34611 0.270728,-1.15996 0.601618,-1.80856 0.735274,-1.44125 2.181333,-2.18967 4.230775,-2.18967 l 1.499881,0 4.469286,-4.49441 c 4.59855,-4.62439 5.568136,-5.37766 6.921986,-5.37766 1.185281,0 0.952904,-0.68949 -0.601689,-1.78527 -1.232357,-0.86864 -1.388259,-1.11089 -1.388259,-2.1572 0,-0.64826 0.166591,-1.34526 0.370202,-1.54887 0.287936,-0.28793 -0.194687,-0.3702 -2.171803,-0.3702 -1.933194,0 -2.831664,0.14778 -3.751433,0.617 -0.665183,0.33936 -1.491435,0.61701 -1.83611,0.61701 -0.344668,0 -0.800069,-0.27765 -1.012,-0.61701 -0.701904,-1.12391 -2.27046,-0.81925 -3.970843,0.77127 -0.816295,0.76354 -1.693523,1.38825 -1.949398,1.38825 -0.255882,0 -0.936529,-0.41379 -1.512549,-0.91955 l -1.047312,-0.91955 -1.836992,1.92218 c -1.818304,1.90262 -3.839386,4.66921 -4.856083,6.64732 -0.509566,0.99142 -0.500293,1.10134 0.2992,3.54777 1.038616,3.17812 1.495526,3.91292 2.433123,3.91292 1.222365,0 1.711556,0.32657 2.34285,1.56402 0.631856,1.23853 1.323868,1.80445 2.225668,1.82012 0.340797,0.006 0.539882,-0.22268 0.539882,-0.61991 z m 9.008256,-14.549 c -0.203611,-0.20361 -0.370202,-0.6908 -0.370202,-1.08264 0,-0.57006 0.402412,-0.91087 2.013568,-1.70537 2.236621,-1.10293 2.997435,-0.98883 3.172972,0.47583 0.08454,0.70541 -0.130318,0.91754 -1.765086,1.74277 -2.049592,1.03463 -2.501663,1.119 -3.051252,0.56941 z m 36.43132,9.57721 c 0.36643,-0.19611 1.38057,-0.43906 2.25365,-0.53988 1.48987,-0.17206 1.57152,-0.22599 1.3287,-0.87746 -0.21054,-0.56482 -0.49423,-0.69412 -1.52296,-0.69412 -0.69533,0 -1.53276,-0.14372 -1.86096,-0.31936 -0.41672,-0.22303 -0.59672,-0.22003 -0.59672,0.01 0,0.49329 -1.31147,0.89371 -1.90659,0.58214 -0.28508,-0.14926 -0.56273,-0.58404 -0.617,-0.96618 -0.15868,-1.11735 -1.83914,-1.12822 -2.7147,-0.0176 -0.63201,0.80172 -0.64126,0.87349 -0.12584,0.97735 0.30595,0.0616 1.25442,0.58225 2.1077,1.15689 1.63549,1.1014 2.55809,1.27514 3.65472,0.68824 z m -8.28183,-3.64047 c 0.66949,-1.00128 1.54368,-1.96923 1.94265,-2.15101 0.39897,-0.18178 1.69526,-0.33051 2.88065,-0.33051 1.70245,0 2.4836,0.16639 3.71818,0.79199 0.85961,0.4356 1.6354,0.71953 1.72398,0.63095 0.18725,-0.18725 -0.9855,-2.24044 -2.34836,-4.11142 l -0.94711,-1.30021 -0.92557,0.52896 c -0.71031,0.40594 -1.05251,0.44988 -1.47136,0.18895 -0.78636,-0.48988 -0.82739,-1.45439 -0.0902,-2.12148 l 0.63697,-0.57645 -0.83309,-0.86956 c -0.78076,-0.81493 -0.86835,-0.83763 -1.39464,-0.36135 -0.40127,0.36315 -0.56155,0.95107 -0.56155,2.05974 0,1.78003 -0.87618,3.84846 -1.89935,4.48385 -0.37528,0.23305 -1.385582,0.66199 -2.245131,0.9532 -1.502522,0.50904 -1.566393,0.57751 -1.655819,1.77499 -0.105048,1.40669 0.491902,2.25214 1.580433,2.23836 0.47246,-0.006 1.033656,-0.54925 1.889357,-1.829 z" id="path5407" inkscape:connector-curvature="0" sodipodi:nodetypes="ssssssscssscsssssssssssssscsssscssscscsscssssssscsscssssssscssssscsccsssscsssssscccccssccsssscssscccssssscsssscsssssscssssssssscsssssscssssscssssscssssssscscscscsscscscsscscssscsssssscs"/></g><circle r="5.1947064" cy="331.69171" cx="183.45251" id="path5664" style="opacity:0.97508898;fill:#ffffff;fill-opacity:1;stroke:none;stroke-width:0.2;stroke-linecap:butt;stroke-linejoin:miter;stroke-miterlimit:4;stroke-dasharray:none;stroke-dashoffset:10;stroke-opacity:1"/><circle r="5.1947064" cy="331.81839" cx="201.44394" id="path5664-0" style="opacity:0.97508898;fill:#ffffff;fill-opacity:1;stroke:none;stroke-width:0.2;stroke-linecap:butt;stroke-linejoin:miter;stroke-miterlimit:4;stroke-dasharray:none;stroke-dashoffset:10;stroke-opacity:1"/><circle r="5.1947064" cy="331.565" cx="219.30867" id="path5664-0-0" style="opacity:0.97508898;fill:#ffffff;fill-opacity:1;stroke:none;stroke-width:0.2;stroke-linecap:butt;stroke-linejoin:miter;stroke-miterlimit:4;stroke-dasharray:none;stroke-dashoffset:10;stroke-opacity:1"/><g transform="matrix(0.69779865,0,0,0.69779865,141.73717,36.821413)" id="g5479"><path style="fill:#268f91;fill-opacity:1" d="m 41.201989,458.57374 c -0.34796,-0.49679 -0.63265,-1.1014 -0.63265,-1.3436 0,-0.50131 3.98213,-9.83332 5.28997,-12.3969 1.2958,-2.53998 4.00975,-5.27601 6.29261,-6.3438 1.82649,-0.85432 2.60754,-0.95046 7.72173,-0.95046 5.109085,0 5.897035,0.0968 7.721715,0.94827 3.67081,1.71303 5.64428,4.50225 9.32489,13.17936 2.09859,4.94747 2.24566,5.49001 1.76276,6.5025 -0.40554,0.8503 -0.86174,1.13279 -1.98118,1.22681 -0.83838,0.0704 -1.63857,-0.1017 -1.88935,-0.4064 -0.23927,-0.29071 -1.53439,-3.05726 -2.87805,-6.14789 -4.18717,-9.63119 -5.12423,-10.43762 -12.116115,-10.42703 -6.99794,0.0106 -8.018,0.92698 -12.33874,11.08474 -1.16077,2.72889 -2.40241,5.19022 -2.75921,5.46963 -1.04079,0.81503 -2.80987,0.6163 -3.51838,-0.39523 z m 16.16494,-25.88102 c -2.13477,-0.54497 -4.80111,-2.33181 -5.93203,-3.97533 -1.54144,-2.24009 -1.92462,-3.51562 -1.92462,-6.40664 0,-8.64685 9.84243,-13.48436 16.736625,-8.22598 2.51302,1.91674 3.9901,4.97651 3.9901,8.26549 0,1.43456 -0.25655,3.2223 -0.57012,3.97277 -0.78247,1.87272 -3.32814,4.6044 -5.16337,5.54066 -1.75895,0.89735 -5.270865,1.30532 -7.136585,0.82903 z m 5.477615,-5.73867 c 2.45901,-1.49921 3.20451,-4.93115 1.5958,-7.34639 -2.03887,-3.0611 -5.602815,-3.50679 -8.297175,-1.0376 -2.61207,2.39378 -2.21284,6.57154 0.80375,8.41086 1.68387,1.02671 4.188275,1.0153 5.897625,-0.0269 z" id="path5394-2-8" inkscape:connector-curvature="0" sodipodi:nodetypes="ssssscsscsssssssssssssscssscc"/><path style="fill:#268f91;fill-opacity:1" d="m 92.429574,458.57374 c -0.34796,-0.49679 -0.63265,-1.1014 -0.63265,-1.3436 0,-0.50131 3.98213,-9.83332 5.28997,-12.3969 1.2958,-2.53998 4.009746,-5.27601 6.292606,-6.3438 1.82649,-0.85432 2.60754,-0.95046 7.72173,-0.95046 5.10909,0 5.89704,0.0968 7.72173,0.94827 3.6708,1.71303 5.64427,4.50225 9.32488,13.17936 2.09859,4.94747 2.24566,5.49001 1.76276,6.5025 -0.40554,0.8503 -0.86174,1.13279 -1.98118,1.22681 -0.83838,0.0704 -1.63857,-0.1017 -1.88935,-0.4064 -0.23927,-0.29071 -1.53439,-3.05726 -2.87805,-6.14789 -4.18717,-9.63119 -5.12423,-10.43762 -12.11612,-10.42703 -6.99794,0.0106 -8.018,0.92698 -12.338736,11.08474 -1.16077,2.72889 -2.40241,5.19022 -2.75921,5.46963 -1.04079,0.81503 -2.80987,0.6163 -3.51838,-0.39523 z m 16.164936,-25.88102 c -2.13477,-0.54497 -4.80111,-2.33181 -5.93203,-3.97533 -1.54144,-2.24009 -1.92462,-3.51562 -1.92462,-6.40664 0,-8.64685 9.84243,-13.48436 16.73663,-8.22598 2.51302,1.91674 3.9901,4.97651 3.9901,8.26549 0,1.43456 -0.25655,3.2223 -0.57012,3.97277 -0.78247,1.87272 -3.32814,4.6044 -5.16337,5.54066 -1.75895,0.89735 -5.27087,1.30532 -7.13659,0.82903 z m 5.47762,-5.73867 c 2.45901,-1.49921 3.20451,-4.93115 1.5958,-7.34639 -2.03887,-3.0611 -5.60282,-3.50679 -8.29718,-1.0376 -2.61207,2.39378 -2.21284,6.57154 0.80375,8.41086 1.68387,1.02671 4.18828,1.0153 5.89763,-0.0269 z" id="path5394-2-9-0" inkscape:connector-curvature="0" sodipodi:nodetypes="ssssscsscsssssssssssssscssscc"/><path style="fill:#268f91;fill-opacity:1" d="m 66.815784,458.57374 c -0.34796,-0.49679 -0.63265,-1.1014 -0.63265,-1.3436 0,-0.50131 3.98213,-9.83332 5.28997,-12.3969 1.2958,-2.53998 4.00975,-5.27601 6.29261,-6.3438 1.82649,-0.85432 2.60754,-0.95046 7.72173,-0.95046 5.10909,0 5.89704,0.0968 7.72172,0.94827 3.67081,1.71303 5.64428,4.50225 9.324886,13.17936 2.09859,4.94747 2.24566,5.49001 1.76276,6.5025 -0.40554,0.8503 -0.86174,1.13279 -1.98118,1.22681 -0.83838,0.0704 -1.63857,-0.1017 -1.88935,-0.4064 -0.23927,-0.29071 -1.534386,-3.05726 -2.878046,-6.14789 -4.18717,-9.63119 -5.12423,-10.43762 -12.11612,-10.42703 -6.99794,0.0106 -8.018,0.92698 -12.33874,11.08474 -1.16077,2.72889 -2.40241,5.19022 -2.75921,5.46963 -1.04079,0.81503 -2.80987,0.6163 -3.51838,-0.39523 z m 16.16494,-25.88102 c -2.13477,-0.54497 -4.80111,-2.33181 -5.93203,-3.97533 -1.54144,-2.24009 -1.92462,-3.51562 -1.92462,-6.40664 0,-8.64685 9.84243,-13.48436 16.73663,-8.22598 2.51302,1.91674 3.9901,4.97651 3.9901,8.26549 0,1.43456 -0.25655,3.2223 -0.57012,3.97277 -0.78247,1.87272 -3.32814,4.6044 -5.16337,5.54066 -1.75895,0.89735 -5.27087,1.30532 -7.13659,0.82903 z m 5.47762,-5.73867 c 2.45901,-1.49921 3.20451,-4.93115 1.5958,-7.34639 -2.03887,-3.0611 -5.60282,-3.50679 -8.29718,-1.0376 -2.61207,2.39378 -2.21284,6.57154 0.80375,8.41086 1.68387,1.02671 4.18828,1.0153 5.89763,-0.0269 z" id="path5394-2-3-8" inkscape:connector-curvature="0" sodipodi:nodetypes="ssssscsscsssssssssssssscssscc"/></g></g></svg>