<?xml version="1.0" encoding="UTF-8" standalone="no"?>
<!-- Created with Inkscape (http://www.inkscape.org/) -->

<svg
   xmlns:dc="http://purl.org/dc/elements/1.1/"
   xmlns:cc="http://creativecommons.org/ns#"
   xmlns:rdf="http://www.w3.org/1999/02/22-rdf-syntax-ns#"
   xmlns:svg="http://www.w3.org/2000/svg"
   xmlns="http://www.w3.org/2000/svg"
   xmlns:sodipodi="http://sodipodi.sourceforge.net/DTD/sodipodi-0.dtd"
   xmlns:inkscape="http://www.inkscape.org/namespaces/inkscape"
   width="6cm"
   height="6cm"
   viewBox="0 0 212.59842 212.59842"
   id="svg5032"
   version="1.1"
   inkscape:version="0.91 r13725"
   sodipodi:docname="evolution_2.svg">
  <defs
     id="defs5034" />
  <sodipodi:namedview
     id="base"
     pagecolor="#ffffff"
     bordercolor="#666666"
     borderopacity="1.0"
     inkscape:pageopacity="0.0"
     inkscape:pageshadow="2"
     inkscape:zoom="0.79063164"
     inkscape:cx="-284.48141"
     inkscape:cy="98.276068"
     inkscape:document-units="px"
     inkscape:current-layer="layer1"
     showgrid="false"
     units="cm"
     inkscape:window-width="1366"
     inkscape:window-height="706"
     inkscape:window-x="1272"
     inkscape:window-y="72"
     inkscape:window-maximized="1" />
  <metadata
     id="metadata5037">
    <rdf:RDF>
      <cc:Work
         rdf:about="">
        <dc:format>image/svg+xml</dc:format>
        <dc:type
           rdf:resource="http://purl.org/dc/dcmitype/StillImage" />
        <dc:title></dc:title>
      </cc:Work>
    </rdf:RDF>
  </metadata>
  <g
     inkscape:label="Calque 1"
     inkscape:groupmode="layer"
     id="layer1"
     transform="translate(0,-839.76374)">
    <ellipse
       style="fill:#0094ab;fill-opacity:1;stroke:#0094ab;stroke-width:7.51875162;stroke-linecap:round;stroke-linejoin:round;stroke-miterlimit:8.80000019;stroke-dasharray:none;stroke-opacity:1"
       id="path4144-6-8-7-7"
       cx="106.24417"
       cy="946.11798"
       rx="99.819382"
       ry="100.35644"
       inkscape:export-xdpi="15.760653"
       inkscape:export-ydpi="15.760653" />
    <g
       id="g4724"
       transform="matrix(0.33972736,0,0,0.33972736,8.1590105,844.61065)"
       inkscape:export-xdpi="15.760653"
       inkscape:export-ydpi="15.760653"
       style="fill:#ffffff;fill-opacity:1;stroke:#0094ab;stroke-width:2.2131722;stroke-miterlimit:4;stroke-dasharray:none;stroke-opacity:0">
      <path
         id="path3"
         d="m 275.35155,326.57416 c 5.02216,-5.26829 12.92866,-5.26829 17.95081,0 4.85249,5.2684 4.85249,13.5624 0,18.8308 l -75.21921,78.91854 c -2.3301,2.4443 -5.56509,3.9512 -9.15073,3.9512 -3.58564,0 -6.82063,-1.5069 -9.16204,-3.9512 l -75.21921,-78.91854 c -5.02216,-5.2684 -5.02216,-13.5624 0,-18.8308 5.02215,-5.26829 12.92865,-5.26829 17.95081,0 l 53.68276,56.50424 0,-200.58884 c -0.0113,-7.3448 5.73476,-13.1827 12.73637,-13.1827 7.00161,0 12.5667,5.8379 12.5667,13.1827 l 0,200.57704 53.86374,-56.49244 z"
         style="fill:#ffffff;fill-opacity:1;stroke:#0094ab;stroke-width:2.2131722;stroke-linecap:round;stroke-linejoin:round;stroke-miterlimit:4;stroke-dasharray:none;stroke-opacity:0"
         inkscape:connector-curvature="0" />
      <path
         id="path3-1"
         d="m 302.08301,271.00735 c -5.02216,5.2683 -12.92866,5.2683 -17.95081,0 -4.85249,-5.2684 -4.85249,-13.56238 0,-18.83081 l 75.21921,-78.9185 c 2.3301,-2.4443 5.56509,-3.9512 9.15073,-3.9512 3.58564,0 6.82063,1.5069 9.16204,3.9512 l 75.21925,78.9185 c 5.0221,5.26843 5.0221,13.56241 0,18.83081 -5.0222,5.2683 -12.9287,5.2683 -17.9508,0 l -53.68281,-56.50421 0,200.58886 c 0.0113,7.3448 -5.73476,13.1827 -12.73637,13.1827 -7.00161,0 -12.5667,-5.8379 -12.5667,-13.1827 l 0,-200.57706 -53.86374,56.49241 z"
         style="fill:#ffffff;fill-opacity:1;stroke:#0094ab;stroke-width:2.2131722;stroke-linecap:round;stroke-linejoin:round;stroke-miterlimit:4;stroke-dasharray:none;stroke-opacity:0"
         inkscape:connector-curvature="0" />
    </g>
  </g>
</svg>
