<?xml version="1.0" encoding="UTF-8" standalone="no"?>
<svg
   xmlns:dc="http://purl.org/dc/elements/1.1/"
   xmlns:cc="http://creativecommons.org/ns#"
   xmlns:rdf="http://www.w3.org/1999/02/22-rdf-syntax-ns#"
   xmlns:svg="http://www.w3.org/2000/svg"
   xmlns="http://www.w3.org/2000/svg"
   xmlns:sodipodi="http://sodipodi.sourceforge.net/DTD/sodipodi-0.dtd"
   xmlns:inkscape="http://www.inkscape.org/namespaces/inkscape"
   id="Calque_1"
   data-name="Calque 1"
   viewBox="0 0 240 240"
   version="1.1"
   sodipodi:docname="femme.svg"
   inkscape:version="0.92.4 (5da689c313, 2019-01-14)">
  <metadata
     id="metadata25">
    <rdf:RDF>
      <cc:Work
         rdf:about="">
        <dc:format>image/svg+xml</dc:format>
        <dc:type
           rdf:resource="http://purl.org/dc/dcmitype/StillImage" />
        <dc:title></dc:title>
      </cc:Work>
    </rdf:RDF>
  </metadata>
  <defs
     id="defs23" />
  <sodipodi:namedview
     pagecolor="#ffffff"
     bordercolor="#666666"
     borderopacity="1"
     objecttolerance="10"
     gridtolerance="10"
     guidetolerance="10"
     inkscape:pageopacity="0"
     inkscape:pageshadow="2"
     inkscape:window-width="1920"
     inkscape:window-height="1017"
     id="namedview21"
     showgrid="false"
     inkscape:zoom="0.98333333"
     inkscape:cx="120"
     inkscape:cy="120"
     inkscape:window-x="-8"
     inkscape:window-y="-8"
     inkscape:window-maximized="1"
     inkscape:current-layer="Calque_1" />
  <path
     d="M120,50.28c7.36,0,13.61-5.32,16.14-12.81H142L137.18,28a20.78,20.78,0,0,0-7.42-14.5A15.65,15.65,0,0,0,120,10a15.84,15.84,0,0,0-10.82,4.5,21,21,0,0,0-6.32,12.93l-4.9,10h5.9C106.39,45,112.64,50.28,120,50.28"
     id="path2"
     style="fill:#0094ab;fill-opacity:1" />
  <polygon
     points="98.28 91.44 97.91 96.56 142.22 96.56 141.85 91.44 98.28 91.44"
     id="polygon4"
     style="fill:#0094ab;fill-opacity:1" />
  <polygon
     points="97.16 106.8 142.96 106.8 142.59 101.68 97.53 101.68 97.16 106.8"
     id="polygon6"
     style="fill:#0094ab;fill-opacity:1" />
  <polygon
     points="100.83 56.58 100.15 65.83 140.01 65.83 139.34 56.58 100.83 56.58"
     id="polygon8"
     style="fill:#0094ab;fill-opacity:1" />
  <polygon
     points="96.79 111.92 95.71 126.62 95.66 126.62 109.35 230 118.72 230 118.72 126.59 121.28 126.58 121.28 229.93 130.63 229.93 144.34 126.55 144.38 126.55 143.33 111.92 96.79 111.92"
     id="polygon10"
     style="fill:#0094ab;fill-opacity:1" />
  <polygon
     points="99.03 81.19 98.66 86.32 141.49 86.32 141.12 81.19 99.03 81.19"
     id="polygon12"
     style="fill:#0094ab;fill-opacity:1" />
  <polygon
     points="99.78 70.95 99.41 76.07 140.75 76.07 140.38 70.95 99.78 70.95"
     id="polygon14"
     style="fill:#0094ab;fill-opacity:1" />
  <rect
     x="53.92"
     y="89.91"
     width="75.86"
     height="8.19"
     transform="translate(-9.88 177.23) rotate(-84.95)"
     id="rect16"
     style="fill:#0094ab;fill-opacity:1" />
  <rect
     x="144.05"
     y="56.08"
     width="8.19"
     height="75.86"
     transform="translate(-7.7 13.4) rotate(-5.05)"
     id="rect18"
     style="fill:#0094ab;fill-opacity:1" />
</svg>
