<?xml version="1.0" encoding="UTF-8" standalone="no"?>
<!-- Generator: Adobe Illustrator 19.1.0, SVG Export Plug-In . SVG Version: 6.00 Build 0)  -->
<svg xmlns:dc="http://purl.org/dc/elements/1.1/" xmlns:cc="http://creativecommons.org/ns#" xmlns:rdf="http://www.w3.org/1999/02/22-rdf-syntax-ns#" xmlns:svg="http://www.w3.org/2000/svg" xmlns="http://www.w3.org/2000/svg" xmlns:sodipodi="http://sodipodi.sourceforge.net/DTD/sodipodi-0.dtd" xmlns:inkscape="http://www.inkscape.org/namespaces/inkscape" version="1.1" id="Capa_1" x="0px" y="0px" viewBox="0 0 490.4 490.4" style="enable-background:new 0 0 490.4 490.4;" xml:space="preserve" inkscape:version="0.91 r13725" sodipodi:docname="habitant.svg"><metadata id="metadata45"><rdf:RDF><cc:Work rdf:about=""><dc:format>image/svg+xml</dc:format><dc:type rdf:resource="http://purl.org/dc/dcmitype/StillImage"/><dc:title/></cc:Work></rdf:RDF></metadata><defs id="defs43"/><sodipodi:namedview pagecolor="#ffffff" bordercolor="#666666" borderopacity="1" objecttolerance="10" gridtolerance="10" guidetolerance="10" inkscape:pageopacity="0" inkscape:pageshadow="2" inkscape:window-width="1280" inkscape:window-height="1002" id="namedview41" showgrid="false" inkscape:zoom="1.4531251" inkscape:cx="254.89565" inkscape:cy="257.9217" inkscape:window-x="-8" inkscape:window-y="-8" inkscape:window-maximized="1" inkscape:current-layer="Capa_1"/><g id="g11"/><g id="g13"/><g id="g15"/><g id="g17"/><g id="g19"/><g id="g21"/><g id="g23"/><g id="g25"/><g id="g27"/><g id="g29"/><g id="g31"/><g id="g33"/><g id="g35"/><g id="g37"/><g id="g39"/><g id="g4168" transform="translate(2.2752784,-80.061896)"><path sodipodi:nodetypes="ssssscsscsssssssssssssscssscc" inkscape:connector-curvature="0" id="path5394-2" d="m 10.841416,445.55406 c -1.8290195,-2.61133 -3.3254652,-5.7894 -3.3254652,-7.06251 0,-2.63509 20.9316902,-51.68792 27.8062282,-65.16313 6.811251,-13.35117 21.076876,-27.73286 33.076509,-33.34559 9.60078,-4.49065 13.706288,-4.99601 40.588552,-4.99601 26.85545,0 30.99724,0.50883 40.58849,4.98449 19.29527,9.00439 29.66863,23.66566 49.01542,69.27606 11.03104,26.00592 11.8041,28.85773 9.26577,34.17979 -2.13168,4.46952 -4.52965,5.9544 -10.41388,6.44861 -4.40687,0.37005 -8.61299,-0.53458 -9.93119,-2.1362 -1.25771,-1.52809 -8.06538,-16.0702 -15.12821,-32.3158 -22.00946,-50.62545 -26.93503,-54.86438 -63.68724,-54.80871 -36.78401,0.0558 -42.145865,4.87258 -64.857423,58.26589 -6.101479,14.34416 -12.628042,27.28191 -14.503528,28.75059 -5.470814,4.28413 -14.769817,3.23952 -18.494033,-2.07748 z M 95.810901,309.51292 C 84.589684,306.64833 70.574319,297.25598 64.629739,288.61697 56.527304,276.84215 54.513164,270.13744 54.513164,254.94107 c 0,-45.45135 51.735806,-70.87926 87.974516,-43.2391 13.20945,10.07518 20.97359,26.15857 20.97359,43.44678 0,7.54062 -1.34853,16.93771 -2.99679,20.88249 -4.11298,9.84377 -17.49406,24.20259 -27.14077,29.12396 -9.24575,4.71683 -27.70583,6.86129 -37.512809,4.35772 z m 28.792589,-30.16478 c 12.92556,-7.88046 16.84421,-25.92013 8.38818,-38.61561 -10.71713,-16.09038 -29.4507,-18.43311 -43.613352,-5.45405 -13.730097,12.58269 -11.631581,34.54268 4.224835,44.21089 8.851117,5.39681 22.015307,5.33683 31.000337,-0.14139 z" style="fill:#bcbcbc;fill-opacity:1"/><path sodipodi:nodetypes="ssssscsscsssssssssssssscssscc" inkscape:connector-curvature="0" id="path5394-2-9" d="m 280.11442,445.55406 c -1.82901,-2.61133 -3.32546,-5.7894 -3.32546,-7.06251 0,-2.63509 20.93164,-51.68792 27.80618,-65.16313 6.81125,-13.35117 21.07687,-27.73286 33.07651,-33.34559 9.60078,-4.49065 13.70628,-4.99601 40.58855,-4.99601 26.85544,0 30.99723,0.50883 40.58855,4.98449 19.29521,9.00439 29.66856,23.66566 49.01534,69.27606 11.03105,26.00592 11.8041,28.85773 9.26578,34.17979 -2.13168,4.46952 -4.52965,5.9544 -10.41388,6.44861 -4.40686,0.37005 -8.61299,-0.53458 -9.93119,-2.1362 -1.2577,-1.52809 -8.06538,-16.0702 -15.1282,-32.3158 -22.00947,-50.62545 -26.93503,-54.86438 -63.68724,-54.80871 -36.78401,0.0558 -42.14587,4.87258 -64.85743,58.26589 -6.10147,14.34416 -12.62804,27.28191 -14.50353,28.75059 -5.47076,4.28413 -14.76975,3.23952 -18.49398,-2.07748 z m 84.96944,-136.04114 c -11.22122,-2.86459 -25.23658,-12.25694 -31.18116,-20.89595 -8.10244,-11.77482 -10.11659,-18.47953 -10.11659,-33.6759 0,-45.45135 51.73582,-70.87926 87.97453,-43.2391 13.20945,10.07518 20.97358,26.15857 20.97358,43.44678 0,7.54062 -1.34853,16.93771 -2.99678,20.88249 -4.11298,9.84377 -17.49406,24.20259 -27.14077,29.12396 -9.24576,4.71683 -27.70584,6.86129 -37.51281,4.35772 z m 28.79259,-30.16478 c 12.92556,-7.88046 16.84421,-25.92013 8.38818,-38.61561 -10.71714,-16.09038 -29.4507,-18.43311 -43.61335,-5.45405 -13.7301,12.58269 -11.63158,34.54268 4.22483,44.21089 8.8511,5.39681 22.01531,5.33683 31.00034,-0.14139 z" style="fill:#bcbcbc;fill-opacity:1"/><path sodipodi:nodetypes="ssssscsscsssssssssssssscssscc" inkscape:connector-curvature="0" id="path5394-2-3" d="m 145.4779,445.55406 c -1.82902,-2.61133 -3.32546,-5.7894 -3.32546,-7.06251 0,-2.63509 20.93168,-51.68792 27.80622,-65.16313 6.81125,-13.35117 21.07688,-27.73286 33.07651,-33.34559 9.60078,-4.49065 13.70629,-4.99601 40.58855,-4.99601 26.85545,0 30.99724,0.50883 40.5885,4.98449 19.29526,9.00439 29.66862,23.66566 49.0154,69.27606 11.03104,26.00592 11.8041,28.85773 9.26578,34.17979 -2.13168,4.46952 -4.52966,5.9544 -10.41389,6.44861 -4.40685,0.37005 -8.61298,-0.53458 -9.93118,-2.1362 -1.2577,-1.52809 -8.06538,-16.0702 -15.1282,-32.3158 -22.00947,-50.62545 -26.93503,-54.86438 -63.68724,-54.80871 -36.78402,0.0558 -42.14587,4.87258 -64.85743,58.26589 -6.10148,14.34416 -12.62804,27.28191 -14.50353,28.75059 -5.47082,4.28413 -14.76981,3.23952 -18.49403,-2.07748 z m 84.96949,-136.04114 c -11.22122,-2.86459 -25.23659,-12.25694 -31.18117,-20.89595 -8.10243,-11.77482 -10.11658,-18.47953 -10.11658,-33.6759 0,-45.45135 51.73581,-70.87926 87.97452,-43.2391 13.20946,10.07518 20.97359,26.15857 20.97359,43.44678 0,7.54062 -1.34853,16.93771 -2.99678,20.88249 -4.11299,9.84377 -17.49406,24.20259 -27.14077,29.12396 -9.24576,4.71683 -27.70584,6.86129 -37.51281,4.35772 z m 28.79258,-30.16478 c 12.92557,-7.88046 16.84422,-25.92013 8.38818,-38.61561 -10.71713,-16.09038 -29.45069,-18.43311 -43.61335,-5.45405 -13.73009,12.58269 -11.63158,34.54268 4.22484,44.21089 8.8511,5.39681 22.0153,5.33683 31.00033,-0.14139 z" style="fill:#0094ab;fill-opacity:1"/></g></svg>