<?xml version="1.0" encoding="UTF-8" standalone="no"?>
<!-- Generator: Adobe Illustrator 24.3.0, SVG Export Plug-In . SVG Version: 6.00 Build 0)  -->

<svg
   xmlns:dc="http://purl.org/dc/elements/1.1/"
   xmlns:cc="http://creativecommons.org/ns#"
   xmlns:rdf="http://www.w3.org/1999/02/22-rdf-syntax-ns#"
   xmlns:svg="http://www.w3.org/2000/svg"
   xmlns="http://www.w3.org/2000/svg"
   xmlns:sodipodi="http://sodipodi.sourceforge.net/DTD/sodipodi-0.dtd"
   xmlns:inkscape="http://www.inkscape.org/namespaces/inkscape"
   version="1.1"
   id="Calque_1"
   x="0px"
   y="0px"
   viewBox="0 0 240 240"
   style="enable-background:new 0 0 240 240;"
   xml:space="preserve"
   sodipodi:docname="homme.svg"
   inkscape:version="0.92.4 (5da689c313, 2019-01-14)"><metadata
   id="metadata27"><rdf:RDF><cc:Work
       rdf:about=""><dc:format>image/svg+xml</dc:format><dc:type
         rdf:resource="http://purl.org/dc/dcmitype/StillImage" /><dc:title></dc:title></cc:Work></rdf:RDF></metadata><defs
   id="defs25" /><sodipodi:namedview
   pagecolor="#ffffff"
   bordercolor="#666666"
   borderopacity="1"
   objecttolerance="10"
   gridtolerance="10"
   guidetolerance="10"
   inkscape:pageopacity="0"
   inkscape:pageshadow="2"
   inkscape:window-width="1920"
   inkscape:window-height="1017"
   id="namedview23"
   showgrid="false"
   inkscape:zoom="0.98333333"
   inkscape:cx="120"
   inkscape:cy="120"
   inkscape:window-x="-8"
   inkscape:window-y="-8"
   inkscape:window-maximized="1"
   inkscape:current-layer="Calque_1" />
<polygon
   points="95.17,99.79 144.9,99.79 145.46,94.67 94.61,94.67 "
   id="polygon2"
   style="fill:#0094ab;fill-opacity:1" />
<polygon
   points="96.3,110.02 143.79,110.02 144.34,104.91 95.73,104.91 "
   id="polygon4"
   style="fill:#0094ab;fill-opacity:1" />
<polygon
   points="91.79,69.07 148.26,69.07 149.6,56.79 90.44,56.77 "
   id="polygon6"
   style="fill:#0094ab;fill-opacity:1" />
<polygon
   points="96.86,115.14 98.13,126.68 98.13,126.68 104.21,230 118.12,230 118.12,126.76 122.01,126.75 122.01,230 135.92,230   141.96,126.72 141.96,126.72 143.23,115.14 "
   id="polygon8"
   style="fill:#0094ab;fill-opacity:1" />
<polygon
   points="92.92,79.31 147.14,79.31 147.7,74.19 92.35,74.19 "
   id="polygon10"
   style="fill:#0094ab;fill-opacity:1" />
<polygon
   points="94.04,89.55 146.02,89.55 146.58,84.43 93.48,84.43 "
   id="polygon12"
   style="fill:#0094ab;fill-opacity:1" />
<rect
   x="150.87"
   y="56.79"
   width="8.19"
   height="75.81"
   id="rect14"
   style="fill:#0094ab;fill-opacity:1" />
<rect
   x="80.94"
   y="56.77"
   width="8.19"
   height="75.81"
   id="rect16"
   style="fill:#0094ab;fill-opacity:1" />
<g
   id="g20"
   style="fill:#0094ab;fill-opacity:1">
	<path
   d="M119.84,50.45c9.02,0,16.32-8.45,16.32-18.86c0-3.56-0.87-6.86-2.35-9.7c0.96-2.1,1.85-4.44,2.45-6.93c0,0-1.86,0.56-4.5,1   c0.59-1.89,1.12-3.86,1.41-5.96c-3.26,1.46-6.87,2.61-10.51,3.02c-0.92-0.19-1.86-0.3-2.82-0.3c-0.94,0-1.86,0.11-2.76,0.29   c-0.24,0.05-0.48,0.09-0.71,0.15c-7.34,1.84-12.84,9.39-12.84,18.43C103.52,42,110.82,50.45,119.84,50.45"
   id="path18"
   style="fill:#0094ab;fill-opacity:1" />
</g>
</svg>