<?xml version="1.0" encoding="UTF-8" standalone="no"?>
<svg
   xmlns:dc="http://purl.org/dc/elements/1.1/"
   xmlns:cc="http://creativecommons.org/ns#"
   xmlns:rdf="http://www.w3.org/1999/02/22-rdf-syntax-ns#"
   xmlns:svg="http://www.w3.org/2000/svg"
   xmlns="http://www.w3.org/2000/svg"
   xmlns:sodipodi="http://sodipodi.sourceforge.net/DTD/sodipodi-0.dtd"
   xmlns:inkscape="http://www.inkscape.org/namespaces/inkscape"
   version="1.1"
   id="svg4644"
   viewBox="0 0 73.632266 68.849546"
   height="19.430872mm"
   width="20.780663mm"
   inkscape:version="0.92.2 (5c3e80d, 2017-08-06)"
   sodipodi:docname="icon-eco8.svg">
  <sodipodi:namedview
     pagecolor="#ffffff"
     bordercolor="#666666"
     borderopacity="1"
     objecttolerance="10"
     gridtolerance="10"
     guidetolerance="10"
     inkscape:pageopacity="0"
     inkscape:pageshadow="2"
     inkscape:window-width="2880"
     inkscape:window-height="1526"
     id="namedview11"
     showgrid="false"
     inkscape:zoom="3.4277641"
     inkscape:cx="-148.72756"
     inkscape:cy="34.424773"
     inkscape:window-x="-11"
     inkscape:window-y="-11"
     inkscape:window-maximized="1"
     inkscape:current-layer="svg4644" />
  <defs
     id="defs4646" />
  <metadata
     id="metadata4649">
    <rdf:RDF>
      <cc:Work
         rdf:about="">
        <dc:format>image/svg+xml</dc:format>
        <dc:type
           rdf:resource="http://purl.org/dc/dcmitype/StillImage" />
        <dc:title />
      </cc:Work>
    </rdf:RDF>
  </metadata>
  <g
     transform="translate(-41.480271,-123.55402)"
     id="layer1"
     style="fill:#0094ab;fill-opacity:1">
    <g
       id="text5662-49-8-5"
       style="font-style:normal;font-weight:normal;font-size:20.33613396px;line-height:80.00000119%;font-family:sans-serif;letter-spacing:0px;word-spacing:0px;display:inline;fill:#0094ab;fill-opacity:1;stroke:none;stroke-width:1px;stroke-linecap:butt;stroke-linejoin:miter;stroke-opacity:1">
      <g
         id="text5662-49-8-5-1"
         style="font-style:normal;font-weight:normal;font-size:20.33613396px;line-height:80.00000119%;font-family:sans-serif;letter-spacing:0px;word-spacing:0px;display:inline;fill:#0094ab;fill-opacity:1;stroke:none;stroke-width:1px;stroke-linecap:butt;stroke-linejoin:miter;stroke-opacity:1">
        <g
           id="g5658"
           transform="matrix(0.68677246,0,0,0.68677246,-429.16574,-649.85981)"
           style="display:inline;fill:#0094ab;fill-opacity:1">
          <path
             id="path5561"
             d="m 760.93724,1221.0513 c -3.93071,-0.5743 -6.4948,-2.3901 -8.39432,-5.9444 -0.99422,-1.8603 -1.02732,-2.3537 -1.16832,-17.4125 -0.1436,-15.3365 -0.15589,-15.5114 -1.18061,-16.7965 -0.8891,-1.115 -1.42681,-1.3269 -3.80341,-1.4988 -2.50373,-0.1812 -2.87947,-0.089 -3.93681,0.9686 l -1.16891,1.169 0,14.327 c 0,15.8509 -0.24902,17.9837 -2.43422,20.8487 -2.19367,2.8761 -5.13446,4.1811 -9.8337,4.3638 -3.5483,0.138 -4.09392,0.039 -6.37523,-1.1573 -1.83037,-0.9598 -2.86015,-1.8989 -3.8665,-3.5259 l -1.37167,-2.2177 -0.13375,-17.6633 -0.13374,-17.6633 2.97676,0 2.97676,0 0,16.5818 c 0,11.1837 0.16441,16.9427 0.50504,17.6903 1.30993,2.875 8.06511,2.8962 10.44526,0.033 0.52447,-0.6309 0.69289,-3.8048 0.87664,-16.5194 l 0.22744,-15.7386 1.34175,-2.4221 c 1.78496,-3.2223 4.23287,-4.6778 8.35853,-4.9698 4.3363,-0.3069 6.69829,0.4612 9.23979,3.0048 3.39384,3.3966 3.5766,4.4933 3.5766,21.4614 l 0,14.4072 1.09843,1.1853 c 1.37616,1.4848 2.7545,1.8366 6.21641,1.5861 2.21118,-0.1599 2.9678,-0.4325 3.96364,-1.428 l 1.23078,-1.2303 0.12973,-16.8208 0.12973,-16.8207 2.71328,0 2.71329,0 0,16.7734 c 0,18.3116 -0.13055,19.4043 -2.63325,22.0405 -2.68102,2.824 -7.34509,4.1105 -12.28542,3.3886 z m -42.54812,-43.8705 c -0.16679,-0.1668 -0.30326,-1.1153 -0.30326,-2.1079 0,-0.9925 -0.22123,-2.5448 -0.49162,-3.4495 l -0.49162,-1.6449 -3.86343,0.1481 c -9.24206,0.3543 -17.02168,-2.9863 -20.40699,-8.7629 -3.41232,-5.8227 -3.11845,-16.7617 0.72704,-27.0636 0.50752,-1.3596 1.03105,-2.6473 1.16341,-2.8614 0.13236,-0.2142 1.06211,0.3527 2.06612,1.2598 2.17817,1.9678 8.09192,5.806 12.19945,7.9177 1.6262,0.8361 3.61074,2.0176 4.41008,2.6257 1.89728,1.4433 4.16939,5.0223 5.23073,8.2395 0.94274,2.8576 1.5789,9.7242 1.0837,11.6973 l -0.3206,1.2774 -1.17823,-2.0151 c -3.1374,-5.3656 -10.6353,-12.8986 -12.55506,-12.6139 -1.72122,0.2553 -1.25013,1.1187 2.1194,3.8842 5.55246,4.5572 9.50997,10.3876 11.18983,16.4855 1.09257,3.966 1.24334,7.2873 0.33081,7.2873 -0.33358,0 -0.74297,-0.1365 -0.90976,-0.3033 z m 51.16061,-2.735 c 0.072,-1.1707 -0.0661,-2.1781 -0.3068,-2.2386 -0.24073,-0.061 -1.41865,-0.2425 -2.61758,-0.4041 -4.67019,-0.6298 -6.69032,-4.1583 -6.69032,-11.6856 l 0,-4.4678 2.27441,0 2.27441,0 0,-4.0234 c 0,-3.3202 0.14541,-4.1551 0.83186,-4.7763 1.04262,-0.9435 2.31009,-0.9592 3.61575,-0.045 0.91657,0.642 1.01098,1.0881 1.01098,4.7763 l 0,4.0682 3.36636,0 3.36635,0 0.15898,-4.1309 c 0.17003,-4.4179 0.70477,-5.4217 2.88828,-5.4217 2.1835,0 2.71825,1.0038 2.88827,5.4217 l 0.15898,4.1309 2.29357,0 2.29357,0 -0.23251,4.9054 c -0.38706,8.1661 -2.4053,10.7733 -8.99397,11.6184 -0.47518,0.061 -0.72441,0.7423 -0.82097,2.2441 l -0.13864,2.1566 -3.87593,0 -3.87594,0 0.13089,-2.1285 z m -46.91482,-9.8122 c 3.9e-4,-4.0145 2.12971,-8.5817 5.87435,-12.5999 1.20232,-1.2902 1.78578,-2.2797 1.6093,-2.7293 -0.40365,-1.0285 -5.11489,4.1213 -6.65026,7.2692 -1.1786,2.4165 -1.22242,2.4517 -1.52933,1.2303 -0.17378,-0.6916 -0.23475,-2.6363 -0.13547,-4.3214 0.30173,-5.1216 1.93929,-7.5507 7.4787,-11.0935 1.03739,-0.6634 2.83949,-2.1197 4.00468,-3.2362 2.42537,-2.3239 2.18308,-2.4912 4.12882,2.8505 1.7409,4.7792 2.09628,10.8873 0.78192,13.4389 -1.18527,2.301 -3.48845,4.4786 -5.6957,5.3852 -1.66332,0.6832 -6.03694,1.4933 -6.84389,1.2678 -0.21355,-0.06 -0.77646,0.015 -1.25092,0.1653 -0.69336,0.22 -0.86266,0.7141 -0.86266,2.5175 0,1.2341 -0.2047,2.2438 -0.45488,2.2438 -0.25019,0 -0.45478,-1.0747 -0.45466,-2.3882 z"
             style="fill:#0094ab;fill-opacity:1" />
          <path
             id="path5561-7"
             d="m 718.41107,1177.1041 c -0.16679,-0.1668 -0.30326,-1.1153 -0.30326,-2.1079 0,-0.9925 -0.22123,-2.5448 -0.49162,-3.4495 l -0.49163,-1.6449 -3.86342,0.1481 c -9.24207,0.3543 -17.02168,-2.9863 -20.40699,-8.7629 -3.41232,-5.8227 -3.11845,-16.7617 0.72704,-27.0637 0.50751,-1.3596 1.03105,-2.6472 1.16341,-2.8614 0.13236,-0.2141 1.06211,0.3528 2.06611,1.2599 2.17818,1.9678 8.09193,5.806 12.19946,7.9177 1.6262,0.8361 3.61074,2.0176 4.41007,2.6257 1.89729,1.4433 4.1694,5.0223 5.23074,8.2395 0.94274,2.8576 1.5789,9.7242 1.0837,11.6973 l -0.3206,1.2774 -1.17823,-2.0151 c -3.1374,-5.3656 -10.6353,-12.8986 -12.55506,-12.6139 -1.72122,0.2553 -1.25013,1.1187 2.11939,3.8842 5.55246,4.5572 9.50998,10.3876 11.18984,16.4855 1.09257,3.966 1.24334,7.2873 0.33081,7.2873 -0.33358,0 -0.74298,-0.1365 -0.90976,-0.3033 z m 4.24579,-12.5472 c 3.9e-4,-4.0145 2.1297,-8.5817 5.87435,-12.5999 1.20232,-1.2902 1.78578,-2.2797 1.6093,-2.7293 -0.40365,-1.0285 -5.1149,4.1213 -6.65026,7.2692 -1.1786,2.4165 -1.22242,2.4517 -1.52933,1.2303 -0.17379,-0.6916 -0.23475,-2.6363 -0.13547,-4.3214 0.30173,-5.1216 1.93929,-7.5507 7.4787,-11.0935 1.03739,-0.6635 2.83949,-2.1198 4.00468,-3.2362 2.42537,-2.3239 2.18307,-2.4912 4.12882,2.8505 1.7409,4.7792 2.09628,10.8873 0.78192,13.4389 -1.18526,2.301 -3.48845,4.4786 -5.6957,5.3852 -1.66332,0.6832 -6.03694,1.4934 -6.84389,1.2678 -0.21355,-0.06 -0.77647,0.015 -1.25093,0.1653 -0.69335,0.2201 -0.86265,0.7141 -0.86265,2.5175 0,1.2341 -0.2047,2.2438 -0.45488,2.2438 -0.25019,0 -0.45478,-1.0747 -0.45466,-2.3882 z"
             style="display:inline;fill:#0094ab;fill-opacity:1" />
        </g>
      </g>
    </g>
  </g>
</svg>
