<?xml version="1.0" encoding="UTF-8" standalone="no"?>
<!-- Generator: Adobe Illustrator 19.1.0, SVG Export Plug-In . SVG Version: 6.00 Build 0)  -->
<svg xmlns:dc="http://purl.org/dc/elements/1.1/" xmlns:cc="http://creativecommons.org/ns#" xmlns:rdf="http://www.w3.org/1999/02/22-rdf-syntax-ns#" xmlns:svg="http://www.w3.org/2000/svg" xmlns="http://www.w3.org/2000/svg" xmlns:sodipodi="http://sodipodi.sourceforge.net/DTD/sodipodi-0.dtd" xmlns:inkscape="http://www.inkscape.org/namespaces/inkscape" version="1.1" id="Capa_1" x="0px" y="0px" viewBox="0 0 490.4 490.4" style="enable-background:new 0 0 490.4 490.4;" xml:space="preserve" inkscape:version="0.92.4 (5da689c313, 2019-01-14)" sodipodi:docname="menage.svg"><metadata id="metadata45"><rdf:RDF><cc:Work rdf:about=""><dc:format>image/svg+xml</dc:format><dc:type rdf:resource="http://purl.org/dc/dcmitype/StillImage"/><dc:title/></cc:Work></rdf:RDF></metadata><defs id="defs43"><pattern y="0" x="0" height="6" width="6" patternUnits="userSpaceOnUse" id="EMFhbasepattern"/></defs><sodipodi:namedview pagecolor="#ffffff" bordercolor="#666666" borderopacity="1" objecttolerance="10" gridtolerance="10" guidetolerance="10" inkscape:pageopacity="0" inkscape:pageshadow="2" inkscape:window-width="1920" inkscape:window-height="986" id="namedview41" showgrid="false" inkscape:zoom="1.4531251" inkscape:cx="172.57652" inkscape:cy="230.39482" inkscape:window-x="-11" inkscape:window-y="-11" inkscape:window-maximized="1" inkscape:current-layer="Capa_1"/><path inkscape:connector-curvature="0" id="path4515" d="m 317.25033,436.65708 c -1.74863,-2.09823 -2.44799,-15.73674 -4.54622,-70.98962 l -0.69886,-24.82918 -6.64445,-2.79759 c -11.19052,-5.24508 -19.23368,-18.18423 -20.63256,-34.27073 -0.69886,-8.74252 -3.14735,-14.68761 -17.13561,-41.96414 l -15.73625,-31.47347 -0.35025,39.16705 c 0,43.01325 -0.69886,46.1606 -9.09245,48.95819 l -4.89581,1.39937 -0.35026,55.6028 c -0.35026,53.854 -0.69885,55.95223 -3.84671,58.74998 -4.54621,3.49695 -9.79179,3.49695 -14.68761,-0.35025 -3.84687,-3.14735 -3.84687,-3.49711 -4.19647,-39.51631 -0.35025,-20.28296 -0.35025,-45.11197 -0.35025,-55.95289 v -19.23318 h -10.84092 -10.49066 v 54.55352 c 0,52.80505 0,54.90328 -3.49694,59.09974 -4.19647,5.24558 -11.54028,5.59518 -16.08649,1.04912 -3.14735,-3.14735 -3.49711,-5.59534 -3.49711,-58.75015 v -55.25288 l -4.54606,-1.04911 c -8.74275,-1.74848 -9.09245,-4.89582 -9.09245,-48.25884 0,-21.68167 -0.34976,-39.51664 -0.34976,-39.51664 -0.34976,0 -7.69337,14.33787 -16.78567,31.82307 -13.63837,25.87781 -17.48512,32.1725 -20.63242,32.87185 -6.64436,1.74847 -11.54022,-0.35025 -13.98814,-5.94492 -2.09822,-4.89599 -1.74851,-6.2947 4.89584,-18.534 3.84672,-7.34382 16.08635,-31.47347 27.27683,-53.8545 11.54019,-22.38069 23.08038,-44.76189 25.87797,-50.00747 10.49116,-17.4852 31.47347,-27.27651 50.35705,-23.08005 10.84092,2.09823 22.03143,9.09179 27.97637,16.78536 2.09823,2.79759 17.48537,31.82324 33.92097,63.99557 25.17877,49.30794 29.37524,59.09975 28.32612,62.94645 -2.09823,7.3438 -1.39937,20.28296 1.39937,25.8783 1.74864,3.14734 5.59534,6.64429 9.09245,8.39291 5.94494,3.14735 6.64429,3.14735 10.1414,0.69887 4.89533,-3.4971 17.13511,-3.4971 23.7794,0 4.89599,2.44782 5.24558,2.44782 11.89004,-1.39937 5.59533,-3.49711 6.99404,-5.59533 9.44204,-13.28891 1.74847,-5.94493 2.09823,-11.88987 1.39937,-17.48521 5.92147,3.38732 18.24151,4.45898 17.13512,11.19052 0,13.63849 -10.49067,31.47347 -21.33159,36.0192 l -6.29468,2.79775 -0.69887,24.82902 c -2.09823,55.25287 -2.79758,68.89138 -4.54606,70.9896 -2.09823,2.44801 -9.7918,2.44801 -12.58939,0 -1.39937,-1.39937 -1.74862,-8.39291 -1.74862,-20.98231 0,-16.08632 -0.69887,-19.23318 -2.79759,-20.28229 -1.39937,-0.35026 -3.14735,-0.35026 -4.19647,0 -0.69886,0.35025 -1.39938,9.44155 -1.39938,20.28229 0,12.5894 -0.69885,19.58361 -1.74846,20.98231 -2.79775,2.44801 -10.49083,2.44801 -12.58906,0 z m 24.82852,-75.88561 c 1.04912,-18.88407 0,-23.43013 -6.29469,-23.43013 -5.94493,0 -6.99404,3.49694 -7.34382,23.08054 v 17.83497 h 6.2947 6.2947 z M 228.42559,239.4248 c -0.69886,-54.90328 -0.69886,-57.35127 -3.84671,-61.54774 -6.29469,-8.74269 -11.89003,-11.54026 -21.33207,-11.1905 -10.1409,0 -16.08601,3.49693 -21.33159,12.23962 -2.79757,5.24558 -3.14733,9.09228 -3.49693,61.54774 l -0.69886,55.95223 h 25.52804 25.52854 l -0.35026,-57.00135 z m 95.11944,75.53584 c -7.34381,-3.84687 -11.89004,-12.2398 -11.89004,-21.33208 0,-17.13561 18.534,-27.62627 34.27073,-19.58343 8.39293,4.54606 12.23963,11.54027 11.54028,22.03142 -0.69886,7.34382 -1.74864,9.79164 -6.64446,14.68763 -7.34381,6.99405 -18.18473,8.74252 -27.27651,4.19646 z m 15.38648,-16.0865 c 4.89598,-5.24558 1.39937,-11.54028 -5.94494,-10.49115 -4.19645,0.69885 -5.94493,6.64445 -2.79758,10.49115 2.44782,3.14735 5.59517,3.14735 8.74252,0 z M 189.6088,132.06623 c -19.23384,-8.39293 -29.37524,-27.27702 -24.82902,-47.21005 6.99405,-31.822899 44.41196,-43.712769 68.19203,-21.681674 4.19647,3.84687 9.09229,9.791809 10.49115,13.288747 3.49695,7.693579 4.19647,21.331914 1.39937,30.773787 -2.79774,8.39293 -12.93914,19.58361 -21.68183,23.78007 -8.39293,4.19647 -25.17877,4.54605 -33.57121,1.04912 z m 26.92675,-23.08055 c 7.69357,-4.89599 9.7918,-19.93303 3.84687,-27.276849 -3.84687,-4.895818 -12.93914,-8.392756 -19.23384,-6.994047 -2.44799,0.698858 -6.99356,3.497109 -9.44155,5.944939 -3.8467,4.196457 -4.54623,6.644287 -4.54623,12.938986 0,5.595167 0.69887,9.092271 3.14735,11.540101 6.99422,8.04333 17.83447,9.44204 26.2274,3.84687 z" style="fill:#0094ab;fill-opacity:1;fill-rule:nonzero;stroke:none" sodipodi:nodetypes="ccccccccccccccscccsccsccsccccccccccccccccccccccccsccsccccsccccccccccccccccsccccccccccccccccccccscc"/></svg>