<?xml version="1.0" encoding="UTF-8" standalone="no"?>
<!-- Generator: Adobe Illustrator 19.1.0, SVG Export Plug-In . SVG Version: 6.00 Build 0)  -->
<svg xmlns:dc="http://purl.org/dc/elements/1.1/" xmlns:cc="http://creativecommons.org/ns#" xmlns:rdf="http://www.w3.org/1999/02/22-rdf-syntax-ns#" xmlns:svg="http://www.w3.org/2000/svg" xmlns="http://www.w3.org/2000/svg" xmlns:sodipodi="http://sodipodi.sourceforge.net/DTD/sodipodi-0.dtd" xmlns:inkscape="http://www.inkscape.org/namespaces/inkscape" version="1.1" id="Capa_1" x="0px" y="0px" viewBox="0 0 490.4 490.4" style="enable-background:new 0 0 490.4 490.4;" xml:space="preserve" inkscape:version="0.91 r13725" sodipodi:docname="revenu.svg"><metadata id="metadata45"><rdf:RDF><cc:Work rdf:about=""><dc:format>image/svg+xml</dc:format><dc:type rdf:resource="http://purl.org/dc/dcmitype/StillImage"/><dc:title/></cc:Work></rdf:RDF></metadata><defs id="defs43"><pattern y="0" x="0" height="6" width="6" patternUnits="userSpaceOnUse" id="EMFhbasepattern"/><pattern y="0" x="0" height="6" width="6" patternUnits="userSpaceOnUse" id="EMFhbasepattern-3"/></defs><sodipodi:namedview pagecolor="#ffffff" bordercolor="#666666" borderopacity="1" objecttolerance="10" gridtolerance="10" guidetolerance="10" inkscape:pageopacity="0" inkscape:pageshadow="2" inkscape:window-width="1366" inkscape:window-height="706" id="namedview41" showgrid="false" inkscape:zoom="0.72656255" inkscape:cx="41.562331" inkscape:cy="231.72925" inkscape:window-x="1272" inkscape:window-y="-8" inkscape:window-maximized="1" inkscape:current-layer="Capa_1"/><g id="g4185" transform="matrix(1.1062,0,0,1.1062,-36.662601,-23.128386)"><path style="fill:#bcbcbc;fill-opacity:1;fill-rule:nonzero;stroke:none" d="m 153.61851,420.76 c -5.95159,-4.05679 -8.11545,-8.65561 -8.11545,-16.50081 -0.27057,-8.65663 -4.32842,-23.80577 -8.92739,-31.38003 -2.16421,-3.51681 -6.76317,-10.00932 -10.82107,-14.33758 -14.06741,-16.23127 -27.323057,-39.49579 -34.086186,-60.59644 -4.328398,-13.25558 -6.492584,-30.02747 -5.41051,-45.98817 0.811581,-15.96084 2.975793,-20.83022 9.197846,-20.83022 7.84525,0 8.11577,0.81156 8.11577,23.53534 0.27057,24.34691 2.70524,35.70841 11.63253,54.9155 7.30423,15.14914 13.25581,24.61709 25.15901,38.41367 14.06704,16.5017 21.91231,35.43785 21.91231,51.93968 l 0,5.68094 27.05271,0 27.05235,0 0,-7.8452 c 0,-12.71445 0.27057,-12.98501 30.29866,-12.71445 17.0432,0.27095 25.97059,1.08251 27.32323,2.16413 1.35263,1.08251 1.89368,4.59894 1.89368,10.00933 l 0,8.38619 27.05234,0 26.78218,0 0,-7.03363 c 0,-20.55953 5.9516,-32.73259 25.6997,-53.29225 19.74848,-20.55927 25.15901,-28.6749 35.16814,-53.56281 1.8937,-4.86938 6.76318,-6.76307 15.96111,-6.76307 10.55055,0 11.36213,-1.89369 11.36213,-27.05177 0,-25.97004 -0.54101,-26.7816 -13.25583,-26.7816 -4.86948,0 -10.0095,-0.81156 -11.36213,-1.89331 -1.35263,-1.08251 -4.32807,-6.49251 -6.76281,-12.44389 -6.49265,-15.14927 -15.69057,-28.67528 -29.21692,-42.20092 -10.28003,-10.27989 -11.90319,-12.44401 -12.71477,-18.12496 -1.62317,-11.90289 0,-25.15808 4.86948,-34.62641 l 4.32844,-8.65663 -4.05791,0 c -5.14001,0 -18.39547,4.59881 -24.88812,8.92719 -3.24632,1.8937 -8.65686,6.76308 -12.44424,10.82089 -7.0337,7.57426 -10.82107,8.92682 -18.66636,5.95113 -2.16386,-0.81156 -9.46808,-2.43469 -16.23126,-3.78738 -13.25582,-2.16375 -15.69056,-4.05744 -15.69056,-10.82051 0,-2.70513 1.08215,-4.59882 3.51684,-6.22194 3.51686,-2.16413 4.59897,-2.16413 18.12531,0.27094 l 14.33757,2.97569 7.84529,-7.0335 c 12.17371,-10.55033 33.54534,-19.477398 47.61239,-19.477398 8.92739,0 17.85478,8.927068 17.85478,18.124708 0,2.43469 -2.16422,8.65676 -4.59897,14.06714 -2.97579,5.95151 -4.86948,12.44363 -5.14,17.58358 l -0.54101,8.11563 11.90319,12.71445 c 12.9853,13.52602 19.74811,22.99396 26.78181,37.60211 l 4.59896,9.4682 7.30423,0.81156 c 9.46844,1.35256 16.77267,6.22194 20.56005,13.79658 2.70419,5.68056 2.97472,8.65638 2.97472,30.56859 0,25.42853 -1.081,31.38003 -6.7621,37.87254 -3.51685,3.78726 -12.98529,7.84507 -18.39583,7.84507 -4.32843,0 -4.86948,0.81157 -9.46845,10.55033 -7.0337,15.14889 -15.41967,26.78134 -30.83971,42.74205 -17.85478,18.39539 -20.01901,22.72339 -21.37164,41.11879 -0.81158,15.96083 -2.16421,19.47752 -8.6565,23.53432 -4.32844,2.43469 -7.57476,2.70525 -35.98009,2.70525 -28.40498,0 -31.38077,-0.27094 -35.7092,-2.70525 -5.14001,-3.24523 -8.9274,-9.46718 -8.9274,-14.87756 l 0,-3.78738 -12.44423,0.27095 -12.17336,0.54061 -1.08215,4.86938 c -2.16421,14.33656 -5.95158,15.68925 -44.09555,15.68925 -29.48743,0 -30.56955,0 -35.43903,-3.24625 z M 149.01956,233.56144 C 130.08302,231.12675 111.68719,221.38837 97.890493,206.50966 65.968519,172.15394 67.050632,119.9437 100.3252,86.399162 c 40.84944,-41.11892 110.64469,-30.5686 137.69739,20.829958 7.03334,13.25558 9.73861,24.07647 9.73861,40.03679 0,16.50183 -1.62316,24.34691 -9.19755,39.76623 -15.69057,32.46254 -52.21136,51.66925 -89.54409,46.5293 z m 29.48743,-18.93614 c 12.44425,-3.24626 21.91233,-8.65664 31.65132,-18.12483 27.05269,-27.32234 27.32323,-68.44114 0.81158,-96.30486 C 187.70492,75.578402 151.99535,71.791142 123.04933,90.456982 89.504228,112.0985 82.200037,160.52149 107.89992,191.36052 c 5.95148,7.30407 17.58415,16.50183 24.61785,19.47753 14.33757,6.22194 31.6513,7.57463 45.98922,3.78725 z" id="path4171" inkscape:connector-curvature="0"/><path style="fill:#0094ab;fill-opacity:1;fill-rule:nonzero;stroke:#0094ab;stroke-width:0.24874766px;stroke-linecap:butt;stroke-linejoin:miter;stroke-miterlimit:4;stroke-dasharray:none;stroke-opacity:1" d="M 149.56062,234.37303 C 130.6241,231.66791 111.95773,221.9294 98.161035,207.05082 66.509593,172.96554 67.591693,120.48473 100.59574,86.940192 c 41.11996,-41.1188 110.91521,-30.5686 137.96792,20.830078 7.03334,13.52602 9.46808,24.07635 9.7386,40.0368 0,16.77227 -1.89368,24.3469 -9.19755,39.76623 -15.96109,32.73297 -52.21137,51.66911 -89.54409,46.79973 z m 29.21691,-19.20657 c 12.71477,-3.24626 22.18286,-8.65677 31.65131,-18.12497 27.0527,-27.05177 27.59375,-68.44113 1.08215,-96.30485 -23.53553,-24.346648 -59.2451,-28.404468 -87.9206,-9.738638 -33.81562,21.641648 -41.119811,70.064518 -15.41993,100.903548 6.22202,7.30407 17.85467,16.50183 24.88838,19.47752 14.33757,6.22208 31.65129,7.57464 45.71869,3.78739 z" id="path4173" inkscape:connector-curvature="0"/><path style="fill:#0094ab;fill-opacity:1;fill-rule:nonzero;stroke:none" d="m 178.23648,170.26025 c -3.24633,1.62313 -6.76318,2.70526 -10.28004,2.70526 -5.95158,0 -11.63265,-2.43469 -15.69056,-6.76307 -1.08215,-1.08252 -1.89369,-2.4347 -2.9758,-3.51682 l 18.12531,0 0,-8.38607 -21.6418,0 c -0.27057,-1.62313 -0.54101,-3.51682 -0.54101,-5.13995 0,-0.81156 0,-1.62313 0.27057,-2.43469 l 21.91233,0 0,-8.65663 -19.47794,0 c 1.08215,-2.16426 2.43474,-4.05782 4.32842,-5.95113 4.05791,-4.32838 9.73897,-6.76307 15.69057,-6.76307 3.24632,0 6.49265,0.81156 9.46844,2.16413 l 9.46844,-11.90289 c -5.68106,-3.24626 -12.17371,-5.13995 -18.93689,-5.13995 -17.0432,0 -31.38077,11.63245 -35.97973,27.59291 l -7.03369,0 0,8.65663 5.68106,0 -0.27057,2.43469 c 0,1.62313 0.27057,3.51682 0.27057,5.13995 l -5.68106,0 0,8.38607 7.84527,0 c 5.41054,14.8787 19.20706,25.15808 35.16815,25.15808 7.30423,0 14.06741,-2.16412 19.74847,-5.68094 l -9.46844,-11.90251 z" id="path4175" inkscape:connector-curvature="0"/></g></svg>