<?xml version="1.0" encoding="UTF-8" standalone="no"?>
<!-- Created with Inkscape (http://www.inkscape.org/) -->

<svg
   xmlns:dc="http://purl.org/dc/elements/1.1/"
   xmlns:cc="http://creativecommons.org/ns#"
   xmlns:rdf="http://www.w3.org/1999/02/22-rdf-syntax-ns#"
   xmlns:svg="http://www.w3.org/2000/svg"
   xmlns="http://www.w3.org/2000/svg"
   xmlns:sodipodi="http://sodipodi.sourceforge.net/DTD/sodipodi-0.dtd"
   xmlns:inkscape="http://www.inkscape.org/namespaces/inkscape"
   width="100mm"
   height="100mm"
   viewBox="0 0 354.33071 354.33071"
   id="svg3379"
   version="1.1"
   inkscape:version="0.92.4 (5da689c313, 2019-01-14)"
   sodipodi:docname="social_tx_pauvrete.svg">
  <defs
     id="defs3381">
    <clipPath
       clipPathUnits="userSpaceOnUse"
       id="clipPath4259">
      <g
         transform="matrix(1.1594988,0,0,1.1594988,4.9803622,703.0113)"
         id="g4261"
         style="fill:#0094ab;fill-opacity:1">
        <g
           id="g4263"
           style="fill:#0094ab;fill-opacity:1">
          <g
             id="g4265"
             style="fill:#0094ab;fill-opacity:1">
            <path
               d="m 45.432,35.049 c -0.008,0 -0.017,0 -0.025,0 -2.809,0 -5.451,1.095 -7.446,3.085 -2.017,2.012 -3.128,4.691 -3.128,7.543 l 0,159.365 c 0,5.844 4.773,10.61 10.641,10.625 24.738,0.059 66.184,5.215 94.776,35.136 l 0,-166.78 c 0,-1.981 -0.506,-3.842 -1.461,-5.382 C 115.322,40.849 70.226,35.107 45.432,35.049 Z"
               id="path4267"
               inkscape:connector-curvature="0"
               style="fill:#0094ab;fill-opacity:1" />
            <path
               d="m 262.167,205.042 0,-159.366 c 0,-2.852 -1.111,-5.531 -3.128,-7.543 -1.995,-1.99 -4.639,-3.085 -7.445,-3.085 -0.009,0 -0.018,0 -0.026,0 -24.793,0.059 -69.889,5.801 -93.357,43.593 -0.955,1.54 -1.46,3.401 -1.46,5.382 l 0,166.779 c 28.592,-29.921 70.038,-35.077 94.776,-35.136 5.867,-0.015 10.64,-4.781 10.64,-10.624 z"
               id="path4269"
               inkscape:connector-curvature="0"
               style="fill:#0094ab;fill-opacity:1" />
            <path
               d="m 286.373,71.801 -7.706,0 0,133.241 c 0,14.921 -12.157,27.088 -27.101,27.125 -20.983,0.05 -55.581,4.153 -80.084,27.344 42.378,-10.376 87.052,-3.631 112.512,2.171 3.179,0.724 6.464,-0.024 9.011,-2.054 2.538,-2.025 3.994,-5.052 3.994,-8.301 l 0,-168.9 C 297,76.568 292.232,71.801 286.373,71.801 Z"
               id="path4271"
               inkscape:connector-curvature="0"
               style="fill:#0094ab;fill-opacity:1" />
            <path
               d="m 18.332,205.042 0,-133.241 -7.706,0 C 4.768,71.801 0,76.568 0,82.427 l 0,168.897 c 0,3.25 1.456,6.276 3.994,8.301 2.545,2.029 5.827,2.78 9.011,2.054 25.46,-5.803 70.135,-12.547 112.511,-2.171 -24.502,-23.19 -59.1,-27.292 -80.083,-27.342 C 30.49,232.13 18.332,219.963 18.332,205.042 Z"
               id="path4273"
               inkscape:connector-curvature="0"
               style="fill:#0094ab;fill-opacity:1" />
          </g>
        </g>
      </g>
    </clipPath>
    <clipPath
       clipPathUnits="userSpaceOnUse"
       id="clipPath4341">
      <g
         transform="matrix(0.86876854,0,0,0.86876854,3.8590621,701.89024)"
         id="g4343"
         style="fill:#0094ab;fill-opacity:1">
        <g
           id="g4345"
           style="fill:#0094ab;fill-opacity:1">
          <g
             id="g4347"
             style="fill:#0094ab;fill-opacity:1">
            <path
               inkscape:connector-curvature="0"
               d="m 225.092,276.586 c -7.101,4.355 -16.195,6.754 -25.607,6.754 -9.412,0 -18.506,-2.398 -25.607,-6.754 L 57.946,205.484 c 0,0 -10.464,-6.414 -10.464,8.116 0,16.5 0,66 0,66 0,0.66 0,3.973 0,5 0,37.402 68.053,77.723 152,77.723 83.947,0 152,-40.32 152,-77.723 0,-1.027 0,-4.34 0,-5 0,0 0,-52.502 0,-70.003 0,-11.663 -7.439,-5.964 -7.439,-5.964 l -118.951,72.953 z"
               id="path4349"
               style="fill:#0094ab;fill-opacity:1" />
            <path
               inkscape:connector-curvature="0"
               d="m 392.289,148.927 c 8.908,-5.463 8.908,-14.403 0,-19.867 L 215.681,40.745 c -8.908,-5.463 -23.485,-5.463 -32.393,0 L 6.681,129.06 c -8.908,5.463 -8.908,14.403 0,19.867 l 176.607,108.315 c 8.908,5.463 23.485,5.463 32.393,0"
               id="path4351"
               style="fill:#0094ab;fill-opacity:1" />
            <path
               inkscape:connector-curvature="0"
               d="m 384.985,309.475 c 0,-29.906 0,-119.625 0,-119.625 0,0 0.083,-5.666 -3.279,-3.795 -2.697,1.501 -9.308,5.186 -11.637,7.212 -2.689,2.337 -2.083,7.583 -2.083,7.583 0,0 0,81.469 0,108.625 0,1.542 -1.325,2.278 -1.957,2.65 -6.105,3.589 -10.21,10.214 -10.21,17.809 0,11.414 9.252,20.667 20.667,20.667 11.414,0 20.666,-9.253 20.666,-20.667 0,-7.624 -4.135,-14.27 -10.279,-17.85 -0.611,-0.356 -1.888,-1.068 -1.888,-2.609 z"
               id="path4353"
               style="fill:#0094ab;fill-opacity:1" />
          </g>
        </g>
      </g>
    </clipPath>
  </defs>
  <sodipodi:namedview
     id="base"
     pagecolor="#ffffff"
     bordercolor="#666666"
     borderopacity="1.0"
     inkscape:pageopacity="0.0"
     inkscape:pageshadow="2"
     inkscape:zoom="1.203268"
     inkscape:cx="-28.484314"
     inkscape:cy="98.891907"
     inkscape:document-units="px"
     inkscape:current-layer="layer1"
     showgrid="false"
     inkscape:window-width="1920"
     inkscape:window-height="1017"
     inkscape:window-x="-8"
     inkscape:window-y="-8"
     inkscape:window-maximized="1" />
  <metadata
     id="metadata3384">
    <rdf:RDF>
      <cc:Work
         rdf:about="">
        <dc:format>image/svg+xml</dc:format>
        <dc:type
           rdf:resource="http://purl.org/dc/dcmitype/StillImage" />
        <dc:title />
      </cc:Work>
    </rdf:RDF>
  </metadata>
  <g
     inkscape:label="Calque 1"
     inkscape:groupmode="layer"
     id="layer1"
     transform="translate(0,-698.0315)">
    <g
       id="g4925"
       transform="matrix(1.3954771,0,0,1.3954771,-70.06484,-346.12032)">
      <path
         inkscape:connector-curvature="0"
         id="path4921"
         d="m 170.07951,992.7246 c -20.24292,-1.74624 -36.97389,-6.93244 -53.2316,-16.50061 -10.13825,-5.96667 -21.901903,-16.0223 -29.910147,-25.56732 -6.725293,-8.01594 -15.670618,-22.18052 -14.464628,-22.90428 0.280681,-0.1684 5.923829,-1.78982 12.540321,-3.6031 l 12.029986,-3.29685 0.305882,-8.06339 c 0.168243,-4.43479 0.306539,-11.06131 0.307336,-14.72553 l 0.0011,-6.66214 7.45514,-2.77883 c 4.10033,-1.52834 9.05268,-3.36422 11.00522,-4.07991 1.95253,-0.71558 3.19989,-1.31301 2.77189,-1.32754 -0.64454,-0.0215 -8.47368,0.84525 -23.907759,2.6482 l -2.438839,0.28483 -2.96851,11.0639 c -2.286888,8.5233 -3.139842,11.06185 -3.714612,11.0555 -1.264012,-0.014 -22.363189,-3.22734 -22.573689,-3.43782 -0.368294,-0.36834 -2.483183,-11.20701 -3.092226,-15.84754 -0.967652,-7.37288 -0.721749,-23.23334 0.477386,-30.79131 2.10443,-13.26369 5.199744,-23.11206 10.962615,-34.88003 6.102434,-12.46127 12.38214,-21.21162 22.442204,-31.27173 10.06006,-10.06006 18.81042,-16.33977 31.27171,-22.4422 11.76794,-5.76287 21.61637,-8.85819 34.88007,-10.96262 7.51288,-1.19199 23.43873,-1.44771 30.67787,-0.49259 25.10167,3.31191 47.92974,13.82186 65.88817,30.33468 l 2.45934,2.26138 -3.03482,7.70714 -3.03481,7.70711 -10.05096,-0.34112 -10.05096,-0.34122 -7.1259,14.24572 c -3.91925,7.83505 -7.03387,14.2456 -6.92137,14.2456 0.11249,0 5.25166,-4.13822 11.42037,-9.19617 10.50665,-8.61466 11.2944,-9.1656 12.45889,-8.71322 3.6671,1.42449 16.79205,6.06298 16.86389,5.9599 0.0462,-0.0667 2.50094,-4.22701 5.45495,-9.24589 4.32061,-7.3407 5.48648,-9.00688 5.96174,-8.52018 1.91259,1.95866 8.35051,12.57545 11.56105,19.06541 8.23966,16.65611 11.97686,32.82927 11.97686,51.83098 0,25.33769 -7.1821,47.76355 -21.98103,68.63471 -3.34103,4.71187 -10.59594,13.25358 -11.25698,13.25358 -0.21179,0 -2.91036,-5.11207 -5.99683,-11.36024 -3.08646,-6.24807 -5.80423,-11.36025 -6.03947,-11.36025 -0.23525,0 -3.57925,0.85203 -7.43114,1.89345 -3.85188,1.04131 -7.29144,1.89323 -7.64345,1.89312 -0.35203,-2.1e-4 -2.05612,-1.86396 -3.78687,-4.14178 -1.73076,-2.27781 -4.79191,-6.27152 -6.80255,-8.87496 l -3.65573,-4.7334 0.31997,2.13008 c 0.17597,1.17151 1.23,7.66815 2.34229,14.43693 l 2.02233,12.30685 8.48367,0.23674 8.48367,0.23663 0.55122,8.52018 c 0.30318,4.68605 0.56943,9.92079 0.59168,11.6327 l 0.0405,3.11263 -4.92262,2.93228 c -14.08795,8.39191 -29.11896,13.68304 -45.18585,15.90587 -5.33017,0.73742 -18.68757,1.28116 -22.78627,0.92767 z M 181.084,944.72324 c 0.6622,-1.32561 0.82775,-2.90452 0.82834,-7.89961 l 9.5e-4,-6.24269 2.24837,-0.30033 c 18.70259,-2.49787 30.82687,-14.34353 32.11255,-31.37475 0.65677,-8.7001 -2.43518,-17.37965 -8.25274,-23.16694 -1.76949,-1.76034 -4.52669,-3.9666 -6.12712,-4.90277 -2.62394,-1.53501 -12.82696,-5.27068 -17.96936,-6.57918 l -2.0117,-0.51188 V 848.1431 c -2.2e-4,-10.48433 0.16124,-15.60209 0.49199,-15.60209 0.74309,0 4.2789,1.85233 6.00328,3.14501 2.21193,1.65811 4.36901,5.03104 5.66246,8.8542 0.62154,1.83706 1.66585,4.04267 2.32068,4.90115 3.07524,4.03191 9.27715,4.47794 13.28864,0.95576 4.49851,-3.9497 4.02583,-10.57224 -1.32568,-18.57332 -5.24942,-7.84861 -13.42182,-12.60568 -23.64209,-13.76202 l -2.7995,-0.31669 v -5.40583 c 0,-7.32651 -0.70861,-8.67213 -4.56658,-8.67213 -3.64734,0 -4.42692,1.59613 -4.42692,9.06414 v 5.13606 h -1.3694 c -2.30244,0 -8.63489,1.46097 -11.88419,2.74192 -11.06815,4.36302 -17.17713,12.34894 -18.52693,24.21934 -0.44495,3.91301 -0.4051,5.42208 0.24624,9.32573 0.98463,5.90103 2.79488,9.66856 6.61008,13.75739 4.56568,4.8932 9.20826,7.40925 20.30911,11.00708 l 4.61509,1.49573 v 17.51254 17.51265 l -1.06502,-0.33024 c -2.84347,-0.88195 -6.51026,-3.18742 -8.56763,-5.3869 -2.42977,-2.59751 -4.23118,-6.12453 -6.04845,-11.8421 -1.77067,-5.57101 -4.8437,-8.07555 -9.8794,-8.05199 -3.63387,0.0172 -7.78098,3.17644 -8.99403,6.85196 -0.75117,2.27609 -0.27376,6.66569 1.17626,10.81543 3.03087,8.67384 11.36914,16.72615 21.07136,20.34884 1.6922,0.63175 5.15312,1.5462 7.69092,2.03182 l 4.61421,0.88302 9.4e-4,6.00434 c 10e-4,8.58905 0.72238,10.00408 4.97099,9.75486 2.17646,-0.12773 2.43324,-0.27203 3.19433,-1.79552 z m 0.82907,-45.19369 v -16.44358 l 1.3017,0.31658 c 2.82349,0.68653 9.10029,4.1194 11.11823,6.08063 2.84764,2.76754 3.86457,5.80979 3.57198,10.68577 -0.25732,4.28855 -1.6338,7.36427 -4.64191,10.37241 -2.19923,2.19927 -6.866,4.70413 -9.58657,5.14564 l -1.76343,0.28613 z M 168.31241,859.0812 c -6.94905,-3.36055 -9.52,-7.31047 -8.97665,-13.7915 0.31739,-3.78582 1.50628,-6.34072 3.94832,-8.48489 1.64769,-1.44666 6.06423,-3.76085 8.57047,-4.49075 l 1.06502,-0.31023 v 14.46889 c 0,7.95783 -0.17102,14.46878 -0.38005,14.46878 -0.20902,0 -2.11122,-0.83707 -4.22711,-1.8603 z"
         style="fill:#0094ab;fill-opacity:1" />
      <path
         inkscape:connector-curvature="0"
         id="path4923"
         d="m 128.81586,850.41219 24.9321,-54.01956 32.41173,-5.81749 27.42531,29.08745 11.63498,38.22923 -4.15535,49.8642 -29.08745,43.21564 -26.59424,16.6214 -38.22922,-73.96523 z"
         style="fill:#0094ab;fill-opacity:1;fill-rule:evenodd;stroke:none;stroke-width:1px;stroke-linecap:butt;stroke-linejoin:miter;stroke-opacity:1" />
    </g>
    <g
       style="font-style:normal;font-weight:normal;font-size:87.21083069px;line-height:69.99999881%;font-family:sans-serif;letter-spacing:0px;word-spacing:0px;fill:#ffffff;fill-opacity:1;stroke:none;stroke-width:1px;stroke-linecap:butt;stroke-linejoin:miter;stroke-opacity:1"
       id="text4893"
       transform="matrix(2.3663727,0,0,2.3663727,-356.71312,-1065.8466)">
      <path
         d="m 245.79978,834.47645 c -2.52912,2.00585 -6.19197,3.31401 -10.63972,3.31401 -5.14544,0 -9.76762,-2.00585 -12.73278,-6.10476 h 10.90135 l 3.92449,-8.8955 h -17.96543 c -0.0872,-0.87211 -0.0872,-1.74422 -0.0872,-2.4419 0,-0.7849 0,-1.39538 0.0872,-2.26748 h 19.79685 l 4.09891,-8.8083 h -21.27944 c 3.05238,-4.79659 8.11061,-6.80244 13.08163,-6.80244 4.01169,0 7.58734,0.78489 10.11645,2.52911 l 4.88381,-10.4653 c -3.92449,-2.4419 -8.37224,-3.92449 -15.00026,-3.92449 -12.47115,0 -23.37251,7.2385 -27.64584,18.66312 h -7.93618 v 8.8083 h 6.10475 c -0.0872,0.8721 -0.0872,1.56979 -0.0872,2.26748 0,1.04653 0,1.56979 0.0872,2.4419 h -6.10475 v 8.8955 h 7.93618 c 4.27333,11.42462 14.91305,18.22707 27.82026,18.22707 6.97686,0 12.81999,-2.4419 16.65727,-5.49428 z"
         style="font-style:normal;font-variant:normal;font-weight:900;font-stretch:normal;font-family:'Circular Std Black';-inkscape-font-specification:'Circular Std Black, Heavy';fill:#ffffff;fill-opacity:1"
         id="path4898"
         inkscape:connector-curvature="0" />
    </g>
  </g>
</svg>
