<?xml version="1.0" encoding="UTF-8" standalone="no"?>
<svg
   xmlns:dc="http://purl.org/dc/elements/1.1/"
   xmlns:cc="http://creativecommons.org/ns#"
   xmlns:rdf="http://www.w3.org/1999/02/22-rdf-syntax-ns#"
   xmlns:svg="http://www.w3.org/2000/svg"
   xmlns="http://www.w3.org/2000/svg"
   version="1.1"
   id="svg4644"
   viewBox="0 0 110.22869 97.276312"
   height="27.453537mm"
   width="31.108988mm">
  <defs
     id="defs4646" />
  <metadata
     id="metadata4649">
    <rdf:RDF>
      <cc:Work
         rdf:about="">
        <dc:format>image/svg+xml</dc:format>
        <dc:type
           rdf:resource="http://purl.org/dc/dcmitype/StillImage" />
        <dc:title></dc:title>
      </cc:Work>
    </rdf:RDF>
  </metadata>
  <g
     transform="translate(-25.9265,-102.11547)"
     id="layer1">
    <g
       id="text5662-49-8-5"
       style="font-style:normal;font-weight:normal;font-size:20.33613396px;line-height:80.00000119%;font-family:sans-serif;letter-spacing:0px;word-spacing:0px;display:inline;fill:#ffd460;fill-opacity:1;stroke:none;stroke-width:1px;stroke-linecap:butt;stroke-linejoin:miter;stroke-opacity:1">
      <g
         id="text5662-49-8-5-1"
         style="font-style:normal;font-weight:normal;font-size:20.33613396px;line-height:80.00000119%;font-family:sans-serif;letter-spacing:0px;word-spacing:0px;display:inline;fill:#aaaaaa;fill-opacity:1;stroke:none;stroke-width:1px;stroke-linecap:butt;stroke-linejoin:miter;stroke-opacity:1">
        <g
           id="g5860"
           style="display:inline"
           transform="translate(-76.020063,-535.95432)">
          <path
             style="fill:#b5b5b5;fill-opacity:1"
             d="m 156.13362,703.72298 c 0,-14.23112 0.0139,-16.00713 0.12774,-16.27951 0.17042,-0.40786 0.42188,-0.66916 0.82144,-0.85357 0.29965,-0.13829 0.58264,-0.15254 3.06223,-0.15418 1.81903,-10e-4 2.82583,0.0294 3.01263,0.0917 0.38564,0.12848 0.88493,0.62469 0.9827,0.97663 0.0446,0.16047 0.0813,1.15532 0.0815,2.21078 l 4.6e-4,1.91904 2.02218,0 2.02218,0 0,-1.94233 c 0,-1.56638 0.0247,-2.00146 0.12775,-2.24803 0.17041,-0.40786 0.42188,-0.66916 0.82144,-0.85357 0.30017,-0.13853 0.58123,-0.15237 3.09517,-0.15237 2.51395,0 2.79501,0.0138 3.09517,0.15237 0.39957,0.18441 0.65103,0.44571 0.82144,0.85357 0.10303,0.24657 0.12775,0.68165 0.12775,2.24803 l 0,1.94233 2.02218,0 2.02218,0 0.002,-1.96031 c 0.002,-2.12903 0.0476,-2.3825 0.50429,-2.80235 0.44692,-0.41086 0.64048,-0.43727 3.20545,-0.43727 l 2.39626,0 0,0.26039 c 0,0.14321 -0.46428,7.54954 -1.03173,16.45855 -0.56745,8.90882 -1.03172,16.27582 -1.03172,16.37092 l 0,0.1729 -14.15526,0 -14.15527,0 0,-15.97372 z m 31.03711,15.87052 c 0.002,-0.057 0.60909,-9.62882 1.35005,-21.27112 l 1.34721,-21.16801 -1.35005,-1.7963 -1.35005,-1.7963 3.3e-4,-4.3145 c 3.3e-4,-4.15963 0.006,-4.32417 0.16433,-4.58351 0.3387,-0.55553 0.50513,-0.59703 2.39404,-0.59703 1.53186,0 1.717,0.0152 1.9558,0.16082 0.52706,0.32138 0.55878,0.44261 0.58844,2.24888 l 0.0268,1.63404 1.52076,0 1.52075,0 0,-1.59014 c 0,-2.4493 0.005,-2.45438 2.55739,-2.45391 2.47596,4.1e-4 2.41725,-0.0553 2.47743,2.35202 l 0.0413,1.65076 1.52695,0 1.52696,0 0.0413,-1.6135 c 0.0455,-1.77987 0.0798,-1.90677 0.60288,-2.23064 0.24493,-0.15165 0.39148,-0.16168 2.0525,-0.1405 1.77892,0.0227 1.78996,0.024 2.01218,0.22916 0.4524,0.41777 0.44979,0.38881 0.44979,4.99644 l 0,4.25889 -1.33612,1.78967 -1.33611,1.78966 1.34024,21.2123 c 0.73713,11.66662 1.33839,21.24002 1.33612,21.27402 -0.002,0.034 -4.8326,0.062 -10.73407,0.062 -8.53044,0 -10.72935,-0.021 -10.72709,-0.1031 z m 13.37456,-7.7858 0.2001,-0.2129 0.0233,-3.47782 c 0.0169,-2.5199 -0.003,-3.5421 -0.0735,-3.7115 -0.19043,-0.4597 -0.34076,-0.4831 -2.93125,-0.4565 l -2.3567,0.024 -0.19909,0.2316 -0.19909,0.2316 0,3.5086 c 0,3.58902 0.0115,3.73062 0.32299,3.96982 0.096,0.074 0.78336,0.1012 2.57208,0.1031 l 2.44112,0 0.2001,-0.2129 z m -0.0315,-13.43992 0.23159,-0.1992 0,-3.64591 0,-3.646 -0.23159,-0.1992 -0.23158,-0.1992 -2.39535,0 -2.39534,0 -0.24127,0.2413 -0.24126,0.2412 0,3.5619 0,3.56181 0.24126,0.2413 0.24127,0.2412 2.39534,0 2.39535,0 z m -0.14736,-13.3744 c 0.41782,-0.21606 0.42734,-0.31238 0.40222,-4.06992 l -0.0233,-3.48259 -0.22871,-0.22878 -0.22871,-0.22879 -2.17896,-0.0256 c -1.40244,-0.0165 -2.29876,0.007 -2.51512,0.0649 -0.5914,0.15924 -0.58489,0.11473 -0.58489,3.99553 0,1.97271 0.0334,3.51183 0.0787,3.63114 0.16219,0.42661 0.34695,0.45707 2.79356,0.46066 1.81385,0.003 2.29848,-0.0201 2.48514,-0.11661 z m -9.24308,-24.80021 c -0.16697,-0.16696 -0.24127,-0.32328 -0.24127,-0.50758 0,-0.18972 0.90357,-2.00171 3.14149,-6.29987 1.72782,-3.31845 3.23207,-6.12556 3.34279,-6.23802 0.27967,-0.28407 0.7851,-0.28407 1.05811,0 0.33542,0.34902 6.48907,12.24302 6.48907,12.54231 0,0.17942 -0.076,0.33788 -0.24127,0.50316 l -0.24126,0.24127 -6.5332,0 -6.5332,0 z"
             id="path6288" />
          <path
             style="fill:#3db39e;fill-opacity:1"
             d="m 113.22286,719.6824 c 0,-6.6661 -0.0463,-12.12032 -0.10281,-12.12032 -0.0565,0 -0.91879,0.4543 -1.91609,1.0096 -2.11816,1.1793 -3.30719,1.4137 -4.34255,0.8561 -0.83773,-0.4511 -1.37144,-1.3853 -1.37144,-2.4004 0,-1.6616 -0.13715,-1.5618 9.77537,-7.115 l 9.00842,-5.04674 0,-7.0428 0,-7.0427 -0.70565,0.7804 c -0.38811,0.4293 -0.70894,0.8451 -0.71296,0.9242 -0.0156,0.3068 -1.62523,0.8619 -2.15926,0.7446 -1.2935,-0.2841 -2.15624,-1.6766 -1.76786,-2.8535 0.1334,-0.4042 3.34762,-4.2667 9.01067,-10.82808 l 8.8033,-10.1997 0.004,-4.055 0.004,-4.055 -2.85184,0 -2.85185,0 0,-1.6933 0,-1.6932 2.85185,0 2.85184,0 0,-3.11925 0,-3.11921 1.60417,0 1.60416,0 0,3.11921 0,3.11925 2.85185,0 2.85184,0 0,1.6932 0,1.6933 -2.85184,0 -2.85185,0 0,4.0047 0,4.0046 8.1545,9.4987 c 4.48497,5.22428 8.45097,9.84828 8.81333,10.27548 0.36236,0.4272 0.70961,1.008 0.77168,1.2906 0.35416,1.6125 -1.13766,3.0998 -2.75323,2.7449 -0.5811,-0.1276 -0.99925,-0.4821 -2.10726,-1.7863 l -0.75637,-0.8904 -0.001,7.2382 -0.001,7.2382 9.02976,5.06044 c 6.9817,3.9126 9.104,5.1817 9.3571,5.5951 0.53172,0.8686 0.59611,1.6366 0.21443,2.5575 -0.45665,1.1019 -1.2536,1.6316 -2.45233,1.6299 -0.77758,0 -1.18797,-0.156 -2.83112,-1.0694 -1.05711,-0.5875 -1.95945,-1.0682 -2.00537,-1.0682 -0.0459,0 -0.0835,5.45422 -0.0835,12.12032 l 0,12.1204 -7.12962,0 -7.12962,0 0,-8.3773 c 0,-4.6075 0.0325,-8.3773 0.0723,-8.3773 0.0397,0 0.40827,0.2807 0.81894,0.6238 0.8103,0.677 1.34315,0.768 2.12614,0.3631 1.11498,-0.5766 1.00261,-1.4569 -0.4112,-3.2217 -2.48834,-3.10602 -6.08894,-5.42722 -9.8468,-6.34782 -2.24217,-0.5493 -5.59517,-0.5496 -7.82065,-7e-4 -1.94692,0.4802 -4.40778,1.6492 -5.97106,2.8364 -1.54603,1.17412 -3.96556,3.75342 -4.43972,4.73282 -0.43529,0.8992 -0.32501,1.4905 0.3686,1.9763 0.74807,0.524 1.66799,0.3016 2.41599,-0.5841 l 0.39463,-0.4673 0.006,8.4219 0.006,8.4218 -6.77313,0 -6.77314,0 0,-12.1203 z m 27.73455,-31.88736 c 1.39382,-0.6523 2.52541,-1.7634 3.20456,-3.1466 0.71525,-1.4568 0.82235,-3.6032 0.2552,-5.1151 -2.06265,-5.4984 -9.63285,-5.8508 -12.22611,-0.5692 -0.46959,0.9564 -0.52032,1.2335 -0.52032,2.8422 0,1.5925 0.0533,1.8909 0.50045,2.8015 1.64011,3.3399 5.48183,4.7335 8.78622,3.1872 z m -11.51467,34.30026 0,-9.7074 1.02488,-0.6952 c 2.07992,-1.4109 4.38729,-2.34822 5.7806,-2.34822 l 0.68061,0 0,11.22912 0,11.2292 -3.74304,0 -3.74305,0 0,-9.7075 z m 9.2685,-1.5217 0,-11.22912 0.58639,0 c 1.51066,0 3.74825,0.92752 5.80852,2.40762 l 0.91295,0.6559 0,9.6974 0,9.6974 -3.65393,0 -3.65393,0 0,-11.2292 z"
             id="path6290" />
        </g>
      </g>
    </g>
  </g>
</svg>
