<?xml version="1.0" encoding="UTF-8" standalone="no"?>
<!-- Generator: Adobe Illustrator 19.1.0, SVG Export Plug-In . SVG Version: 6.00 Build 0)  -->

<svg
   xmlns:dc="http://purl.org/dc/elements/1.1/"
   xmlns:cc="http://creativecommons.org/ns#"
   xmlns:rdf="http://www.w3.org/1999/02/22-rdf-syntax-ns#"
   xmlns:svg="http://www.w3.org/2000/svg"
   xmlns="http://www.w3.org/2000/svg"
   xmlns:sodipodi="http://sodipodi.sourceforge.net/DTD/sodipodi-0.dtd"
   xmlns:inkscape="http://www.inkscape.org/namespaces/inkscape"
   version="1.1"
   id="Capa_1"
   x="0px"
   y="0px"
   viewBox="0 0 490.4 490.4"
   style="enable-background:new 0 0 490.4 490.4;"
   xml:space="preserve"
   inkscape:version="0.91 r13725"
   sodipodi:docname="woman.svg"><metadata
     id="metadata45"><rdf:RDF><cc:Work
         rdf:about=""><dc:format>image/svg+xml</dc:format><dc:type
           rdf:resource="http://purl.org/dc/dcmitype/StillImage" /><dc:title /></cc:Work></rdf:RDF></metadata><defs
     id="defs43" /><sodipodi:namedview
     pagecolor="#ffffff"
     bordercolor="#666666"
     borderopacity="1"
     objecttolerance="10"
     gridtolerance="10"
     guidetolerance="10"
     inkscape:pageopacity="0"
     inkscape:pageshadow="2"
     inkscape:window-width="1366"
     inkscape:window-height="706"
     id="namedview41"
     showgrid="false"
     inkscape:zoom="1.4531251"
     inkscape:cx="41.562331"
     inkscape:cy="230.39482"
     inkscape:window-x="1272"
     inkscape:window-y="-8"
     inkscape:window-maximized="1"
     inkscape:current-layer="Capa_1" /><path
     style="fill:#48355f;fill-opacity:1"
     d="m 125.49506,300.90618 c -1.18474,-10.06756 -1.04365,-10.39338 34.99405,-80.85705 19.90099,-38.91185 38.90973,-73.99615 42.24173,-77.96529 3.33197,-3.96897 11.1197,-9.69279 17.30589,-12.71948 22.03744,-10.78186 48.43521,-6.25105 65.26574,11.20193 10.08793,10.46112 81.46409,150.03185 79.90425,156.24693 -1.88233,7.49961 -6.79545,10.95735 -14.63807,10.302 -6.96078,-0.58168 -7.42006,-1.15043 -19.89929,-24.64166 -7.02578,-13.22551 -13.0211,-23.3179 -13.32315,-22.42733 -0.30178,0.89046 2.57227,19.19154 6.38712,40.66908 8.29974,46.72755 8.5097,51.78938 2.38753,57.54089 -3.98849,3.747 -6.77088,4.27307 -22.60029,4.27307 l -18.05182,-7e-5 0,53.06156 c 0,50.44124 -0.19403,53.25567 -3.93055,56.99205 -5.65502,5.65502 -14.52634,5.08771 -19.50979,-1.24761 -3.88709,-4.94175 -4.07301,-7.54807 -4.07301,-57.08187 l 0,-51.90373 -13.15007,0.58111 -13.15009,0.58113 -0.11514,52.36277 c -0.10781,48.6421 -0.38131,52.65688 -3.85921,56.5008 -4.42418,4.89005 -12.31767,5.35237 -18.41915,1.07861 -4.33313,-3.03501 -4.36777,-3.48735 -4.36777,-56.99197 l 0,-53.93285 -18.66983,0 c -16.44083,0 -19.17062,-0.5009 -22.86399,-4.1942 -3.74508,-3.74502 -4.0762,-5.69167 -3.09199,-18.17845 0.60616,-7.69139 3.82016,-28.91803 7.14209,-47.17025 3.32191,-18.25225 6.01584,-34.17073 5.98668,-35.37436 -0.12353,-5.0995 -27.46529,51.24413 -27.52441,56.72051 -7.99576,1.49502 -20.52237,-5.29326 -20.37746,-13.42627 z m 174.65564,21.8267 c -1.38886,-6.75553 -7.53422,-41.46663 -13.65627,-77.13582 -6.12202,-35.66919 -12.05071,-68.37866 -13.17492,-72.68772 -2.55409,-9.79038 -13.14591,-20.06711 -22.48886,-21.81976 -15.09984,-2.83286 -32.61228,8.77978 -35.02558,23.22539 -5.54326,33.18201 -27.0296,154.59507 -27.83047,157.26149 -0.96728,3.22088 2.63944,3.43913 56.83429,3.43913 l 57.86709,0 z M 221.0827,108.79371 C 190.46991,93.640623 183.47274,52.272647 207.46888,28.307706 233.791,2.0198157 279.91027,13.441351 290.42611,48.852355 c 3.64181,12.263308 3.644,17.660193 0.0169,29.833633 -6.2359,20.901831 -24.99033,34.258422 -48.09941,34.255622 -9.14366,-10e-4 -15.30939,-1.20425 -21.2562,-4.1479 z m 34.49381,-26.541166 c 6.75119,-4.367663 11.00502,-14.728214 9.45009,-23.016503 -1.41089,-7.520304 -9.96898,-16.214292 -17.92712,-18.211682 -6.63554,-1.66545 -17.8827,2.557187 -22.52253,8.455702 -7.41718,9.429491 -3.88685,28.493941 6.18868,33.418912 10.27796,5.024032 16.28828,4.867385 24.81088,-0.646429 z"
     id="path5420-1"
     inkscape:connector-curvature="0"
     sodipodi:nodetypes="cssssssscssscscsscccscsscsssssccssscscscscsscsccssssss" /></svg>