<?xml version="1.0" encoding="UTF-8" standalone="no"?>
<!-- Generator: Adobe Illustrator 19.1.0, SVG Export Plug-In . SVG Version: 6.00 Build 0)  -->

<svg
   xmlns:dc="http://purl.org/dc/elements/1.1/"
   xmlns:cc="http://creativecommons.org/ns#"
   xmlns:rdf="http://www.w3.org/1999/02/22-rdf-syntax-ns#"
   xmlns:svg="http://www.w3.org/2000/svg"
   xmlns="http://www.w3.org/2000/svg"
   xmlns:sodipodi="http://sodipodi.sourceforge.net/DTD/sodipodi-0.dtd"
   xmlns:inkscape="http://www.inkscape.org/namespaces/inkscape"
   version="1.1"
   id="Capa_1"
   x="0px"
   y="0px"
   viewBox="0 0 490.4 490.4"
   style="enable-background:new 0 0 490.4 490.4;"
   xml:space="preserve"
   inkscape:version="0.91 r13725"
   sodipodi:docname="man.svg"><metadata
     id="metadata45"><rdf:RDF><cc:Work
         rdf:about=""><dc:format>image/svg+xml</dc:format><dc:type
           rdf:resource="http://purl.org/dc/dcmitype/StillImage" /><dc:title /></cc:Work></rdf:RDF></metadata><defs
     id="defs43" /><sodipodi:namedview
     pagecolor="#ffffff"
     bordercolor="#666666"
     borderopacity="1"
     objecttolerance="10"
     gridtolerance="10"
     guidetolerance="10"
     inkscape:pageopacity="0"
     inkscape:pageshadow="2"
     inkscape:window-width="1366"
     inkscape:window-height="706"
     id="namedview41"
     showgrid="false"
     inkscape:zoom="0.72656255"
     inkscape:cx="129.30426"
     inkscape:cy="257.9217"
     inkscape:window-x="1272"
     inkscape:window-y="-8"
     inkscape:window-maximized="1"
     inkscape:current-layer="Capa_1" /><path
     style="fill:#2dabad;fill-opacity:1"
     d="m 321.305,265.72169 -18.92441,-37.32746 -0.11065,46.22999 c -0.12112,50.6083 -0.87261,54.65774 -10.67635,57.56886 l -5.751,1.70764 -0.58927,65.71105 c -0.56987,63.54292 -0.71996,65.82231 -4.54744,69.08196 -5.15871,4.39334 -11.61598,4.2775 -17.28329,-0.30962 -4.50867,-3.64972 -4.55103,-4.04802 -4.96823,-46.71155 -0.23167,-23.66677 -0.44785,-53.2155 -0.48157,-65.66384 l -0.0614,-22.6334 -12.52062,0 -12.52071,0 0,64.26951 c 0,62.10301 -0.1349,64.44063 -3.99224,69.34499 -4.88452,6.20958 -13.57987,6.76563 -19.12268,1.22284 -3.70085,-3.70086 -3.85251,-6.42084 -3.85251,-69.10417 l 0,-65.25167 -5.67399,-1.13474 c -10.03899,-2.0078 -10.69913,-5.50338 -10.69913,-56.6499 0,-25.68982 -0.15149,-46.71002 -0.33561,-46.71156 -0.18466,-0.001 -9.10985,16.89373 -19.83414,37.54497 -15.78209,30.39079 -20.3994,37.77376 -24.22421,38.73384 -7.81323,1.96092 -13.66503,-0.61608 -16.40167,-7.2229 -2.38178,-5.74997 -2.04755,-7.04174 5.61269,-21.69483 4.47993,-8.56941 19.03079,-37.13362 32.33534,-63.47596 13.30439,-26.34227 27.06137,-52.79452 30.57092,-58.78266 12.04818,-20.55703 36.83655,-32.06918 58.97314,-27.38817 12.80954,2.70876 26.23656,10.73379 33.01645,19.73318 2.67795,3.55461 20.65478,37.49051 39.94858,75.41327 29.65655,58.29109 34.85352,69.7558 33.61649,74.16053 -21.32472,22.83085 -29.75706,-3.487 -41.50293,-30.65986 z m -46.46767,-26.59483 c -0.52966,-64.49348 -0.71715,-67.50068 -4.52416,-72.59688 -7.42703,-9.94204 -13.76223,-13.26783 -25.06367,-13.15757 -11.9387,0.11613 -18.74091,4.09008 -24.89979,14.54638 -3.61654,6.13981 -3.88774,10.58229 -4.42812,72.5145 l -0.57563,65.97404 30.02208,0 30.02196,0 z m -45.46883,-126.345 c -22.76284,-9.88711 -34.6635,-32.361047 -29.45657,-55.627962 8.37114,-37.40625 52.48159,-51.4300408 80.59039,-25.621683 4.84593,4.449341 10.39448,11.556874 12.33019,15.794625 4.05508,8.87771 4.65254,24.947245 1.33871,36.00773 -2.97366,9.925309 -14.95183,23.33535 -25.33205,28.36032 -9.90098,4.79296 -29.68414,5.33783 -39.47067,1.08697 z m 31.58883,-27.209583 c 8.94997,-5.864246 11.476,-23.362943 4.6291,-32.067361 -4.71635,-5.995894 -15.3568,-9.801626 -22.82089,-8.16233 -3.02571,0.664627 -8.00685,3.823604 -11.06921,7.020065 -4.56879,4.768806 -5.56792,7.480772 -5.56792,15.114083 0,6.579016 1.12795,10.566664 3.85253,13.620411 8.26045,9.258429 20.89125,11.083115 30.97639,4.475132 z"
     id="path5420"
     inkscape:connector-curvature="0"
     sodipodi:nodetypes="ccsscsscsccccscsscsscsscssssssccsscsscccsssssssssscssss" /></svg>